<svg xmlns="http://www.w3.org/2000/svg" xmlns:xlink="http://www.w3.org/1999/xlink" width="313" height="34" viewBox="0 0 313 34">
  <defs>
    <polygon id="logo-a" points="3.248 8.382 .89 8.382 .89 .923 3.248 .923 3.248 8.382"/>
    <polygon id="logo-c" points="13.082 4.382 .886 4.382 .886 .976 13.082 .976 13.082 4.382"/>
    <polygon id="logo-e" points=".407 22.382 28.645 22.382 28.645 .013 .407 .013"/>
    <polygon id="logo-g" points="13.125 14.975 .42 14.975 .42 .261 13.125 .261 13.125 14.975"/>
  </defs>
  <g fill="none" fill-rule="evenodd" transform="translate(0 -1)">
    <polygon fill="#9CA95B" points="54.87 33.729 50.042 33.729 42.929 20.065 43.069 24.497 43.069 33.729 38.751 33.729 38.751 11.71 43.578 11.71 50.664 25.372 50.522 20.94 50.522 11.71 54.87 11.71"/>
    <polygon fill="#9CA95B" points="73.619 11.71 73.619 15.661 64.727 15.661 64.727 20.517 72.208 20.517 72.208 24.469 64.727 24.469 64.727 29.776 73.619 29.776 73.619 33.729 60.154 33.729 60.154 11.71"/>
    <polygon fill="#9CA95B" points="90.083 16.932 86.893 33.785 81.048 33.785 77.407 11.71 82.176 11.71 84.294 27.546 87.258 11.71 92.932 11.71 95.895 27.546 98.013 11.71 102.784 11.71 99.143 33.785 93.271 33.785"/>
    <polygon fill="#9CA95B" points="130.343 11.71 130.343 33.729 125.769 33.729 125.769 24.469 119.362 24.469 119.362 33.729 114.788 33.729 114.788 11.71 119.362 11.71 119.362 20.517 125.769 20.517 125.769 11.71"/>
    <path fill="#9CA95B" d="M143.6714 30.1437C146.4924 30.1437 147.2854 27.6877 147.2854 23.2847L147.2854 22.1547C147.2854 17.7507 146.4924 15.2947 143.6714 15.2947L143.4184 15.2947C140.5944 15.2947 139.7764 17.7507 139.7764 22.1547L139.7764 23.2847C139.7764 27.6877 140.5944 30.1437 143.4184 30.1437L143.6714 30.1437zM135.1464 23.2847L135.1464 22.1547C135.1464 14.5327 137.8264 11.3427 143.5304 11.3427 149.2604 11.3427 151.9424 14.5327 151.9424 22.1547L151.9424 23.2847C151.9424 30.9057 149.2604 34.0947 143.5304 34.0947 137.8264 34.0947 135.1464 30.9057 135.1464 23.2847L135.1464 23.2847zM164.1685 21.8722C165.4135 21.8722 166.9935 21.3932 166.9935 18.9082L166.9935 18.6262C166.9935 16.1412 165.4135 15.6612 164.1685 15.6612L161.3175 15.6612 161.3175 21.8722 164.1685 21.8722zM161.3175 33.7292L156.7445 33.7292 156.7445 11.7102 163.9735 11.7102C167.5595 11.7102 171.6205 12.6422 171.6205 18.4852L171.6205 19.0492C171.6205 24.9212 167.5595 25.8242 163.9735 25.8242L161.3175 25.8242 161.3175 33.7292z"/>
    <polygon fill="#9CA95B" points="189.524 11.71 189.524 15.661 180.629 15.661 180.629 20.517 188.112 20.517 188.112 24.469 180.629 24.469 180.629 29.776 189.524 29.776 189.524 33.729 176.057 33.729 176.057 11.71"/>
    <path fill="#9CA95B" d="M209.4878,32.9386 L209.6598,32.9386 C213.3558,32.9386 214.9378,30.7646 214.9378,26.6706 L216.1228,26.6706 L216.1228,26.9536 C216.1228,31.3286 214.0358,34.0106 209.5178,34.0106 C204.7188,34.0106 202.3178,30.9056 202.3178,23.2846 L202.3178,22.1546 C202.3178,14.5326 204.7188,11.4276 209.5178,11.4276 C214.0358,11.4276 216.1228,14.1096 216.1228,18.9086 L216.1228,19.6136 L214.9378,19.6136 C214.9378,14.5326 213.2978,12.5006 209.6598,12.5006 L209.4878,12.5006 C205.5668,12.5006 203.5028,15.2376 203.5028,22.1546 L203.5028,23.2846 C203.5028,30.2006 205.5088,32.9386 209.4878,32.9386"/>
    <polygon fill="#9CA95B" points="235.322 11.71 235.322 33.729 234.194 33.729 234.194 23.03 223.184 23.03 223.184 33.729 222.056 33.729 222.056 11.71 223.184 11.71 223.184 21.958 234.194 21.958 234.194 11.71"/>
    <path fill="#9CA95B" d="M241.8208 26.9537L241.8208 11.7097 242.9488 11.7097 242.9488 26.8117C242.9488 31.6397 244.9258 32.9387 248.5968 32.9387 252.2648 32.9387 254.2388 31.6397 254.2388 26.8117L254.2388 11.7097 255.3698 11.7097 255.3698 26.9537C255.3698 32.4307 252.8278 34.0107 248.5968 34.0107 244.3608 34.0107 241.8208 32.4307 241.8208 26.9537M267.5689 23.3409C269.7149 23.3409 272.8209 22.5509 272.8209 18.2869L272.8209 17.8349C272.8209 13.5729 269.7149 12.7829 267.5689 12.7829L262.9949 12.7829 262.9949 23.3409 267.5689 23.3409zM262.9949 33.7289L261.8659 33.7289 261.8659 11.7099 267.5689 11.7099C270.5639 11.7099 274.0069 12.9799 274.0069 17.7789L274.0069 18.3439C274.0069 21.8159 272.1969 23.4239 270.0819 24.0739L274.0069 33.7289 272.7349 33.7289 269.0099 24.2999C268.5309 24.3839 268.0509 24.4119 267.5689 24.4119L262.9949 24.4119 262.9949 33.7289zM286.4859 32.9386L286.6559 32.9386C290.3569 32.9386 291.9339 30.7646 291.9339 26.6706L293.1219 26.6706 293.1219 26.9536C293.1219 31.3286 291.0299 34.0106 286.5169 34.0106 281.7169 34.0106 279.3189 30.9056 279.3189 23.2846L279.3189 22.1546C279.3189 14.5326 281.7169 11.4276 286.5169 11.4276 291.0299 11.4276 293.1219 14.1096 293.1219 18.9086L293.1219 19.6136 291.9339 19.6136C291.9339 14.5326 290.2989 12.5006 286.6559 12.5006L286.4859 12.5006C282.5629 12.5006 280.5009 15.2376 280.5009 22.1546L280.5009 23.2846C280.5009 30.2006 282.5049 32.9386 286.4859 32.9386"/>
    <polygon fill="#9CA95B" points="312.318 11.71 312.318 33.729 311.19 33.729 311.19 23.03 300.179 23.03 300.179 33.729 299.051 33.729 299.051 11.71 300.179 11.71 300.179 21.958 311.19 21.958 311.19 11.71"/>
    <g transform="translate(0 11.422)">
      <g transform="translate(4 14)">
        <mask id="logo-b" fill="#fff">
          <use xlink:href="#logo-a"/>
        </mask>
        <path fill="#CCA82C" d="M3.2295,1.1919 L3.2385,1.1079 C3.2405,1.0789 3.2445,1.0489 3.2475,1.0209 C3.1135,1.0239 3.0135,0.9909 2.9375,0.9229 C2.9515,1.0219 2.9605,1.1239 2.9665,1.2269 C2.9945,1.6889 2.9835,2.3139 2.5785,2.4179 C2.5625,2.4209 2.5455,2.4239 2.5295,2.4259 C2.5765,2.5229 2.6165,2.6239 2.6505,2.7309 C2.7505,3.0409 2.7605,3.2389 2.6885,3.3729 C2.6335,3.4709 2.5435,3.5269 2.3995,3.5239 C2.3825,4.0859 2.3545,4.6839 2.2785,5.2659 L1.8525,10.2729 C1.5415,14.1479 1.3205,17.3349 1.1575,20.3029 C1.1325,20.8619 1.1055,21.4219 1.0785,21.9829 C0.9455,24.7029 0.8085,27.5139 0.9505,30.3029 L1.2685,30.2789 C1.0725,26.8679 1.2735,23.3899 1.4515,20.3209 C1.6355,17.3199 1.8755,14.1359 2.2105,10.3019 L2.6695,5.3009 C2.7125,4.5309 2.8435,3.7569 2.9695,3.0089 L3.0095,2.7689 C3.0035,2.7639 2.9975,2.7589 2.9925,2.7529 C2.8125,2.5529 2.8345,2.1899 3.0625,1.5749 C3.1095,1.4489 3.1645,1.3219 3.2295,1.1919" mask="url(#logo-b)"/>
      </g>
      <path fill="#CCA82C" d="M7.3594 8.8218C7.3624 8.8058 7.3654 8.7918 7.3704 8.7788 7.3024 8.7698 7.2324 8.7448 7.1564 8.7028 7.2184 8.8168 7.2704 8.9378 7.3124 9.0658 7.3234 8.9908 7.3394 8.9098 7.3594 8.8218M7.2471 12.7324C7.3491 12.5554 7.4661 12.3954 7.5981 12.2544L7.6151 12.1494C7.5001 12.1494 7.4131 12.1174 7.3481 12.0544 7.1811 11.8934 7.1601 11.5844 7.2791 11.0504 7.3921 10.5404 7.5931 10.1224 7.8771 9.8034 7.8651 9.8074 7.8531 9.8114 7.8411 9.8144 7.6751 9.8564 7.5421 9.8354 7.4431 9.7534 7.4501 9.8494 7.4531 9.9484 7.4531 10.0504 7.4451 10.6684 7.3231 10.9874 7.0621 11.0534 6.9801 11.0744 6.8901 11.0654 6.7891 11.0274L6.7891 11.0284C7.0921 11.4814 7.2461 12.0544 7.2471 12.7324M6.8242 13.9346C6.7762 13.9496 6.7232 13.9546 6.6592 13.9476 6.7052 14.0416 6.7452 14.1406 6.7812 14.2426 6.7892 14.1486 6.8032 14.0466 6.8242 13.9346"/>
      <path fill="#CCA82C" d="M8.146 9.9399L8.128 9.9589C8.07 10.0209 8.017 10.0859 7.967 10.1569L7.944 10.1929C7.904 10.2519 7.858 10.3249 7.814 10.4089 7.801 10.4339 7.791 10.4609 7.779 10.4879L7.736 10.5859C7.716 10.6309 7.696 10.6749 7.678 10.7249 7.632 10.8519 7.596 10.9799 7.565 11.1159 7.438 11.6809 7.522 11.8149 7.551 11.8429 7.56 11.8509 7.577 11.8579 7.601 11.8619 7.633 11.8649 7.667 11.8629 7.705 11.8549L7.737 11.8469C7.785 11.8359 7.832 11.8179 7.881 11.7949 8.369 11.5809 8.996 10.7289 8.896 9.4999 8.717 9.5399 8.422 9.6519 8.146 9.9399M8.1445 7.8457L8.1285 7.8617C8.0785 7.9167 8.0325 7.9737 7.9885 8.0377L7.9705 8.0697C7.9355 8.1217 7.8945 8.1857 7.8565 8.2607 7.8455 8.2817 7.8355 8.3057 7.8265 8.3297L7.7905 8.4157C7.7715 8.4557 7.7545 8.4937 7.7395 8.5377 7.7005 8.6507 7.6695 8.7627 7.6435 8.8827 7.5375 9.3807 7.6125 9.4977 7.6375 9.5217 7.6455 9.5287 7.6595 9.5347 7.6815 9.5377 7.7105 9.5407 7.7395 9.5377 7.7725 9.5307L7.8015 9.5237C7.8425 9.5127 7.8835 9.4977 7.9275 9.4777 8.3535 9.2837 8.8975 8.5317 8.7995 7.4517 8.6425 7.4887 8.3845 7.5907 8.1445 7.8457M8.4092 5.9136L8.3962 5.9276C8.3502 5.9776 8.3092 6.0296 8.2702 6.0876L8.2532 6.1166C8.2222 6.1636 8.1862 6.2216 8.1532 6.2896 8.1422 6.3086 8.1342 6.3306 8.1252 6.3526L8.0922 6.4306C8.0772 6.4666 8.0612 6.5006 8.0482 6.5416 8.0132 6.6416 7.9862 6.7456 7.9632 6.8526 7.8692 7.3026 7.9382 7.4086 7.9612 7.4296 7.9692 7.4356 7.9822 7.4416 8.0012 7.4436 8.0272 7.4456 8.0532 7.4436 8.0832 7.4366L8.1092 7.4306C8.1462 7.4206 8.1842 7.4066 8.2222 7.3886 8.6072 7.2116 9.0932 6.5296 8.9992 5.5536 8.8582 5.5886 8.6252 5.6816 8.4092 5.9136M8.3062 4.0737L8.2952 4.0897C8.2562 4.1457 8.2222 4.2037 8.1912 4.2667L8.1782 4.2967C8.1542 4.3477 8.1252 4.4097 8.1012 4.4817 8.0942 4.5027 8.0882 4.5257 8.0822 4.5477L8.0602 4.6297C8.0492 4.6677 8.0382 4.7037 8.0302 4.7467 8.0092 4.8517 7.9962 4.9567 7.9872 5.0667 7.9552 5.5257 8.0372 5.6217 8.0622 5.6397 8.0712 5.6457 8.0842 5.6487 8.1042 5.6487 8.1302 5.6477 8.1552 5.6417 8.1842 5.6307L8.2092 5.6217C8.2452 5.6067 8.2812 5.5877 8.3162 5.5637 8.6752 5.3377 9.0672 4.5947 8.8442 3.6387 8.7082 3.6917 8.4892 3.8157 8.3062 4.0737M8.4819 2.3638L8.4749 2.3748C8.4479 2.4158 8.4249 2.4578 8.4039 2.5028L8.3959 2.5258C8.3789 2.5618 8.3609 2.6078 8.3449 2.6588 8.3409 2.6738 8.3369 2.6908 8.3329 2.7068L8.3189 2.7658C8.3139 2.7928 8.3059 2.8188 8.3009 2.8488 8.2889 2.9248 8.2809 2.9998 8.2779 3.0788 8.2659 3.4058 8.3269 3.4728 8.3449 3.4858 8.3519 3.4898 8.3609 3.4918 8.3749 3.4908 8.3939 3.4898 8.4119 3.4848 8.4319 3.4768L8.4499 3.4678C8.4749 3.4568 8.4999 3.4428 8.5239 3.4258 8.7749 3.2548 9.0359 2.7168 8.8549 2.0398 8.7589 2.0818 8.6069 2.1748 8.4819 2.3638M7.8604 12.4282L7.8394 12.4502C7.7694 12.5242 7.7064 12.6022 7.6454 12.6882L7.6194 12.7302C7.5714 12.8012 7.5164 12.8882 7.4644 12.9902 7.4494 13.0182 7.4344 13.0512 7.4214 13.0832L7.3684 13.2012C7.3454 13.2532 7.3214 13.3062 7.2994 13.3662 7.2454 13.5182 7.2014 13.6722 7.1654 13.8342 7.0134 14.5102 7.1134 14.6712 7.1494 14.7042 7.1594 14.7152 7.1784 14.7222 7.2074 14.7262 7.2474 14.7302 7.2864 14.7272 7.3324 14.7182L7.3714 14.7092C7.4274 14.6952 7.4854 14.6752 7.5434 14.6472 8.1264 14.3902 8.8764 13.3722 8.7564 11.9012 8.5434 11.9492 8.1904 12.0842 7.8604 12.4282M8.2368 14.3809L8.2118 14.3999C8.1328 14.4649 8.0578 14.5329 7.9858 14.6119L7.9528 14.6509C7.8958 14.7139 7.8278 14.7939 7.7628 14.8879 7.7428 14.9149 7.7258 14.9459 7.7068 14.9769L7.6398 15.0869C7.6078 15.1369 7.5768 15.1859 7.5468 15.2429 7.4718 15.3879 7.4068 15.5349 7.3468 15.6929 7.1038 16.3489 7.1818 16.5239 7.2128 16.5619 7.2208 16.5729 7.2388 16.5839 7.2678 16.5919 7.3068 16.6009 7.3458 16.6029 7.3938 16.5999L7.4328 16.5969C7.4918 16.5899 7.5518 16.5779 7.6148 16.5589 8.2348 16.3809 9.1238 15.4649 9.2068 13.9769 8.9858 13.9949 8.6138 14.0819 8.2368 14.3809M6.229 8.1704C5.854 9.3474 6.271 10.3184 6.696 10.6394 6.772 10.6954 6.842 10.7354 6.902 10.7554 6.957 10.7714 6.979 10.7704 6.989 10.7674 7.027 10.7584 7.153 10.6774 7.158 10.0484 7.16 9.8834 7.15 9.7244 7.129 9.5754 7.12 9.5104 7.106 9.4554 7.092 9.3994L7.079 9.3434C7.074 9.3224 7.069 9.2994 7.064 9.2774 7.059 9.2464 7.052 9.2134 7.044 9.1864 7.012 9.0804 6.971 8.9914 6.937 8.9174 6.933 8.9094 6.929 8.9014 6.926 8.8914 6.924 8.8854 6.922 8.8804 6.919 8.8754 6.876 8.7894 6.827 8.7114 6.771 8.6334 6.58 8.3744 6.367 8.2374 6.229 8.1704M6.7847 6.1909C6.4497 7.2459 6.8227 8.1159 7.2037 8.4019 7.2717 8.4539 7.3337 8.4879 7.3887 8.5059 7.4367 8.5209 7.4567 8.5199 7.4667 8.5179 7.4997 8.5099 7.6127 8.4369 7.6167 7.8739 7.6187 7.7259 7.6097 7.5829 7.5917 7.4489 7.5837 7.3919 7.5707 7.3419 7.5587 7.2919L7.5457 7.2419C7.5417 7.2229 7.5377 7.2029 7.5347 7.1839 7.5287 7.1549 7.5237 7.1259 7.5157 7.1009 7.4857 7.0069 7.4507 6.9269 7.4197 6.8599 7.4167 6.8539 7.4127 6.8459 7.4097 6.8369 7.4077 6.8319 7.4067 6.8269 7.4047 6.8229 7.3647 6.7469 7.3217 6.6749 7.2707 6.6069 7.0997 6.3739 6.9097 6.2519 6.7847 6.1909M7.0215 4.3115C6.7355 5.2355 7.0665 5.9935 7.4015 6.2415 7.4615 6.2865 7.5165 6.3155 7.5635 6.3315 7.6065 6.3435 7.6235 6.3435 7.6315 6.3405 7.6605 6.3325 7.7595 6.2695 7.7605 5.7765 7.7605 5.6475 7.7515 5.5225 7.7345 5.4045 7.7275 5.3555 7.7165 5.3115 7.7045 5.2685L7.6945 5.2255C7.6905 5.2085 7.6865 5.1905 7.6835 5.1735 7.6775 5.1485 7.6725 5.1235 7.6665 5.1025 7.6405 5.0195 7.6085 4.9505 7.5795 4.8925 7.5775 4.8865 7.5745 4.8795 7.5715 4.8725 7.5705 4.8675 7.5685 4.8635 7.5665 4.8595 7.5325 4.7915 7.4945 4.7305 7.4495 4.6705 7.2975 4.4685 7.1295 4.3635 7.0215 4.3115M7.6065 2.4819C7.1645 3.3419 7.3595 4.1449 7.6465 4.4469 7.6975 4.5009 7.7455 4.5399 7.7905 4.5649 7.8295 4.5829 7.8465 4.5859 7.8555 4.5849 7.8865 4.5819 7.9935 4.5359 8.0795 4.0519 8.1025 3.9249 8.1145 3.7999 8.1185 3.6829 8.1195 3.6319 8.1165 3.5869 8.1125 3.5419L8.1095 3.4979C8.1075 3.4819 8.1075 3.4619 8.1065 3.4449 8.1065 3.4199 8.1065 3.3939 8.1035 3.3719 8.0915 3.2859 8.0725 3.2119 8.0555 3.1509 8.0525 3.1449 8.0515 3.1369 8.0505 3.1289 8.0495 3.1239 8.0485 3.1199 8.0465 3.1149 8.0245 3.0439 7.9985 2.9779 7.9645 2.9109 7.8505 2.6849 7.7035 2.5519 7.6065 2.4819M8.0552 1.1904C7.7392 1.7224 7.8312 2.2434 8.0032 2.4484 8.0342 2.4844 8.0622 2.5124 8.0902 2.5284 8.1152 2.5424 8.1252 2.5444 8.1302 2.5444 8.1512 2.5444 8.2212 2.5184 8.2952 2.2124 8.3152 2.1324 8.3282 2.0534 8.3352 1.9784 8.3382 1.9454 8.3382 1.9184 8.3372 1.8884L8.3372 1.8604C8.3372 1.8494 8.3372 1.8374 8.3382 1.8264L8.3382 1.7794C8.3332 1.7234 8.3242 1.6754 8.3162 1.6354 8.3152 1.6314 8.3142 1.6264 8.3132 1.6214 8.3132 1.6184 8.3132 1.6164 8.3122 1.6134 8.3002 1.5664 8.2862 1.5234 8.2672 1.4794 8.2032 1.3304 8.1162 1.2384 8.0552 1.1904M5.8145 10.5405C5.3565 11.9805 5.8655 13.1675 6.3865 13.5585 6.4785 13.6295 6.5645 13.6775 6.6365 13.7015 6.7045 13.7215 6.7315 13.7205 6.7445 13.7175 6.7905 13.7055 6.9445 13.6065 6.9515 12.8375 6.9535 12.6355 6.9405 12.4405 6.9165 12.2575 6.9045 12.1795 6.8875 12.1125 6.8705 12.0425L6.8535 11.9755C6.8475 11.9495 6.8425 11.9215 6.8375 11.8945 6.8295 11.8555 6.8215 11.8175 6.8115 11.7835 6.7725 11.6535 6.7225 11.5445 6.6795 11.4555 6.6765 11.4455 6.6705 11.4335 6.6665 11.4225 6.6645 11.4155 6.6625 11.4085 6.6585 11.4025 6.6065 11.2975 6.5465 11.2015 6.4775 11.1075 6.2435 10.7905 5.9835 10.6225 5.8145 10.5405M5.3765 13.0918C5.0445 14.5948 5.6715 15.7518 6.2355 16.1008 6.3365 16.1628 6.4265 16.2038 6.5025 16.2218 6.5735 16.2358 6.6005 16.2328 6.6125 16.2278 6.6595 16.2118 6.8065 16.0978 6.7415 15.3168 6.7255 15.1128 6.6945 14.9148 6.6525 14.7308 6.6345 14.6538 6.6105 14.5868 6.5855 14.5188L6.5635 14.4518C6.5555 14.4258 6.5465 14.3988 6.5395 14.3708 6.5275 14.3328 6.5175 14.2938 6.5025 14.2608 6.4505 14.1338 6.3905 14.0268 6.3385 13.9388 6.3335 13.9298 6.3285 13.9198 6.3225 13.9078 6.3195 13.9018 6.3165 13.8948 6.3125 13.8888 6.2495 13.7878 6.1805 13.6948 6.1025 13.6068 5.8345 13.3048 5.5555 13.1598 5.3765 13.0918M5.5454 15.9102C5.5534 16.6322 5.9624 17.0952 6.2574 17.1942 6.3104 17.2122 6.3554 17.2212 6.3934 17.2222 6.4264 17.2202 6.4394 17.2152 6.4434 17.2122 6.4634 17.2002 6.5184 17.1322 6.4054 16.7812 6.3764 16.6892 6.3414 16.6032 6.3024 16.5242 6.2864 16.4902 6.2674 16.4622 6.2504 16.4332L6.2324 16.4062C6.2264 16.3942 6.2194 16.3832 6.2124 16.3702 6.2034 16.3542 6.1934 16.3382 6.1844 16.3252 6.1484 16.2712 6.1074 16.2292 6.0744 16.1952 6.0714 16.1912 6.0684 16.1862 6.0644 16.1822 6.0624 16.1802 6.0604 16.1772 6.0574 16.1742 6.0184 16.1352 5.9774 16.1002 5.9314 16.0672 5.7774 15.9582 5.6344 15.9222 5.5454 15.9102"/>
      <g transform="translate(5 18)">
        <mask id="logo-d" fill="#fff">
          <use xlink:href="#logo-c"/>
        </mask>
        <path fill="#CCA82C" d="M13.0083,1.2979 L13.0443,1.2339 C13.0573,1.2109 13.0703,1.1889 13.0823,1.1639 C12.9723,1.1209 12.9003,1.0579 12.8633,0.9759 C12.8393,1.0619 12.8113,1.1479 12.7793,1.2359 C12.6383,1.6239 12.4113,2.1339 12.0423,2.0769 C12.0283,2.0739 12.0123,2.0699 11.9973,2.0659 C12.0033,2.1619 12.0003,2.2589 11.9913,2.3599 C11.9633,2.6489 11.9023,2.8159 11.7963,2.8999 C11.7163,2.9609 11.6223,2.9759 11.5063,2.9229 C11.2943,3.3789 11.0603,3.8599 10.7923,4.3109 L8.6793,8.2739 C7.0593,11.3469 5.7573,13.8869 4.5783,16.2679 C4.3613,16.7189 4.1403,17.1689 3.9213,17.6199 C2.8543,19.8069 1.7533,22.0689 0.8863,24.4079 L1.1563,24.5009 C2.1963,21.6309 3.5863,18.8449 4.8133,16.3859 C6.0203,13.9859 7.3393,11.4559 8.9643,8.4229 L11.1023,4.4779 C11.4073,3.8609 11.7873,3.2699 12.1543,2.6989 L12.2723,2.5169 C12.2693,2.5109 12.2663,2.5049 12.2643,2.4969 C12.1863,2.2699 12.3313,1.9799 12.7363,1.5539 C12.8193,1.4679 12.9073,1.3819 13.0083,1.2979" mask="url(#logo-d)"/>
      </g>
      <path fill="#CCA82C" d="M20.3569 14.1118C20.3649 14.1008 20.3729 14.0908 20.3819 14.0808 20.3289 14.0498 20.2799 14.0038 20.2319 13.9428 20.2429 14.0588 20.2429 14.1758 20.2329 14.2968 20.2679 14.2378 20.3089 14.1768 20.3569 14.1118M18.8887 17.2837C19.0347 17.1757 19.1867 17.0857 19.3437 17.0157L19.3957 16.9357C19.3027 16.8947 19.2407 16.8377 19.2097 16.7627 19.1297 16.5727 19.2207 16.3107 19.5057 15.9147 19.7797 15.5347 20.0917 15.2627 20.4357 15.1007 20.4257 15.0997 20.4137 15.0987 20.4027 15.0967 20.2527 15.0727 20.1497 15.0097 20.0977 14.9067 20.0697 14.9897 20.0367 15.0707 20.0007 15.1547 19.7777 15.6587 19.5647 15.8787 19.3267 15.8417 19.2517 15.8297 19.1817 15.7907 19.1127 15.7227L19.1127 15.7237C19.2007 16.2027 19.1247 16.7287 18.8887 17.2837M18.1182 18.124C18.0722 18.119 18.0282 18.104 17.9782 18.076 17.9822 18.169 17.9812 18.265 17.9732 18.361 18.0132 18.287 18.0622 18.208 18.1182 18.124"/>
      <path fill="#CCA82C" d="M20.6094 15.3076L20.5894 15.3166C20.5194 15.3466 20.4524 15.3816 20.3854 15.4226L20.3554 15.4436C20.3014 15.4786 20.2374 15.5216 20.1724 15.5766 20.1534 15.5916 20.1344 15.6106 20.1154 15.6286L20.0454 15.6946C20.0124 15.7236 19.9814 15.7516 19.9484 15.7876 19.8664 15.8756 19.7914 15.9686 19.7184 16.0686 19.4154 16.4886 19.4374 16.6286 19.4504 16.6616 19.4554 16.6716 19.4664 16.6826 19.4844 16.6946 19.5114 16.7086 19.5384 16.7186 19.5724 16.7246L19.6024 16.7306C19.6454 16.7366 19.6904 16.7406 19.7394 16.7396 20.2154 16.7346 21.0294 16.2556 21.3804 15.2086 21.2204 15.1806 20.9384 15.1686 20.6094 15.3076M21.3452 13.5864L21.3262 13.5944C21.2662 13.6224 21.2082 13.6524 21.1502 13.6904L21.1232 13.7094C21.0762 13.7394 21.0202 13.7784 20.9642 13.8264 20.9472 13.8394 20.9302 13.8564 20.9142 13.8724L20.8532 13.9304C20.8242 13.9574 20.7972 13.9824 20.7692 14.0134 20.6982 14.0924 20.6332 14.1734 20.5692 14.2624 20.3062 14.6344 20.3272 14.7564 20.3392 14.7854 20.3432 14.7944 20.3532 14.8044 20.3692 14.8134 20.3932 14.8264 20.4172 14.8344 20.4472 14.8404L20.4732 14.8454C20.5112 14.8494 20.5502 14.8524 20.5942 14.8504 21.0112 14.8424 21.7222 14.4154 22.0212 13.4934 21.8802 13.4694 21.6332 13.4614 21.3452 13.5864M22.2437 12.0923L22.2277 12.1003C22.1727 12.1253 22.1207 12.1533 22.0667 12.1863L22.0437 12.2043C22.0017 12.2323 21.9517 12.2673 21.8997 12.3113 21.8857 12.3233 21.8707 12.3383 21.8557 12.3533L21.8007 12.4053C21.7757 12.4303 21.7507 12.4533 21.7257 12.4813 21.6617 12.5523 21.6027 12.6263 21.5467 12.7073 21.3117 13.0433 21.3297 13.1543 21.3427 13.1813 21.3457 13.1883 21.3547 13.1973 21.3687 13.2063 21.3897 13.2173 21.4117 13.2243 21.4387 13.2293L21.4627 13.2343C21.4967 13.2383 21.5327 13.2403 21.5717 13.2383 21.9487 13.2293 22.5887 12.8393 22.8537 12.0053 22.7257 11.9833 22.5027 11.9783 22.2437 12.0923M22.8057 10.5454L22.7917 10.5554C22.7397 10.5874 22.6917 10.6224 22.6437 10.6624L22.6227 10.6834C22.5837 10.7164 22.5387 10.7584 22.4937 10.8084 22.4817 10.8224 22.4677 10.8394 22.4557 10.8564L22.4087 10.9164C22.3867 10.9424 22.3657 10.9694 22.3437 11.0014 22.2887 11.0794 22.2417 11.1614 22.1957 11.2494 22.0067 11.6144 22.0397 11.7224 22.0547 11.7464 22.0597 11.7534 22.0697 11.7614 22.0857 11.7684 22.1077 11.7764 22.1307 11.7804 22.1577 11.7814L22.1817 11.7824C22.2167 11.7834 22.2527 11.7794 22.2897 11.7734 22.6637 11.7134 23.2477 11.2404 23.4007 10.3774 23.2707 10.3734 23.0477 10.3984 22.8057 10.5454M23.5523 9.2021L23.5423 9.2091C23.5073 9.2341 23.4733 9.2601 23.4403 9.2891L23.4243 9.3051C23.3993 9.3291 23.3673 9.3591 23.3363 9.3971 23.3273 9.4081 23.3193 9.4201 23.3103 9.4321L23.2773 9.4751C23.2643 9.4951 23.2473 9.5141 23.2333 9.5371 23.1973 9.5951 23.1643 9.6551 23.1333 9.7191 23.0083 9.9831 23.0343 10.0591 23.0453 10.0761 23.0493 10.0811 23.0563 10.0861 23.0683 10.0911 23.0843 10.0961 23.1003 10.0981 23.1203 10.0991L23.1373 10.0991C23.1623 10.0981 23.1873 10.0951 23.2143 10.0901 23.4793 10.0381 23.8843 9.6871 23.9723 9.0681 23.8803 9.0681 23.7223 9.0921 23.5523 9.2021M19.4986 17.251L19.4746 17.261C19.3906 17.297 19.3116 17.34 19.2306 17.389L19.1946 17.415C19.1306 17.456 19.0536 17.508 18.9756 17.572 18.9536 17.591 18.9306 17.613 18.9076 17.635L18.8236 17.713C18.7856 17.748 18.7476 17.783 18.7076 17.825 18.6106 17.93 18.5196 18.041 18.4336 18.162 18.0696 18.664 18.0966 18.831 18.1126 18.87 18.1186 18.883 18.1316 18.896 18.1536 18.91 18.1856 18.926 18.2176 18.937 18.2596 18.946L18.2936 18.953C18.3466 18.96 18.3996 18.964 18.4566 18.963 19.0266 18.957 20.0006 18.384 20.4216 17.133 20.2276 17.098 19.8916 17.084 19.4986 17.251M19.1206 18.9863L19.0946 18.9943C19.0056 19.0193 18.9206 19.0503 18.8326 19.0893L18.7926 19.1093C18.7226 19.1413 18.6406 19.1823 18.5526 19.2373 18.5276 19.2523 18.5016 19.2723 18.4756 19.2903L18.3816 19.3573C18.3376 19.3863 18.2946 19.4153 18.2496 19.4523 18.1376 19.5453 18.0326 19.6423 17.9286 19.7523 17.4956 20.2043 17.4996 20.3753 17.5116 20.4183 17.5146 20.4313 17.5256 20.4453 17.5466 20.4623 17.5756 20.4843 17.6066 20.4993 17.6466 20.5143L17.6816 20.5253C17.7316 20.5393 17.7846 20.5513 17.8436 20.5573 18.4136 20.6293 19.4676 20.1903 20.0596 18.9963 19.8716 18.9343 19.5366 18.8753 19.1206 18.9863M19.6577 13.1792C18.9347 14.0142 18.9357 14.9582 19.1717 15.3712 19.2147 15.4442 19.2587 15.5012 19.3007 15.5392 19.3397 15.5722 19.3577 15.5782 19.3677 15.5792 19.4027 15.5862 19.5337 15.5642 19.7607 15.0492 19.8197 14.9152 19.8677 14.7802 19.9037 14.6492 19.9187 14.5942 19.9267 14.5432 19.9347 14.4922L19.9427 14.4422C19.9457 14.4232 19.9497 14.4032 19.9547 14.3832 19.9607 14.3542 19.9667 14.3262 19.9687 14.3012 19.9807 14.2012 19.9787 14.1152 19.9757 14.0412L19.9757 14.0172C19.9767 14.0112 19.9767 14.0062 19.9767 14.0012 19.9717 13.9152 19.9597 13.8332 19.9397 13.7512 19.8747 13.4702 19.7477 13.2832 19.6577 13.1792M20.8111 11.7495C20.1651 12.4985 20.1651 13.3425 20.3771 13.7125 20.4151 13.7785 20.4531 13.8295 20.4911 13.8635 20.5271 13.8915 20.5441 13.8985 20.5521 13.8995 20.5831 13.9045 20.7011 13.8855 20.9031 13.4235 20.9561 13.3035 20.9991 13.1835 21.0311 13.0665 21.0451 13.0165 21.0521 12.9715 21.0591 12.9255L21.0671 12.8805C21.0701 12.8635 21.0741 12.8455 21.0781 12.8275 21.0831 12.8025 21.0891 12.7775 21.0911 12.7545 21.1001 12.6665 21.0991 12.5875 21.0961 12.5225 21.0961 12.5165 21.0971 12.5075 21.0971 12.4995 21.0971 12.4955 21.0981 12.4905 21.0971 12.4855 21.0931 12.4085 21.0821 12.3355 21.0641 12.2615 21.0061 12.0105 20.8921 11.8425 20.8111 11.7495M21.668 10.2886C21.107 10.9466 21.112 11.6856 21.3 12.0076 21.333 12.0646 21.367 12.1096 21.401 12.1386 21.432 12.1636 21.446 12.1696 21.455 12.1696 21.481 12.1746 21.585 12.1566 21.758 11.7516 21.804 11.6466 21.841 11.5406 21.868 11.4386 21.88 11.3946 21.885 11.3556 21.892 11.3156L21.898 11.2756C21.901 11.2616 21.904 11.2446 21.907 11.2296 21.911 11.2076 21.917 11.1846 21.918 11.1646 21.927 11.0866 21.924 11.0196 21.922 10.9616 21.921 10.9566 21.922 10.9496 21.922 10.9426L21.922 10.9306C21.918 10.8636 21.908 10.7996 21.892 10.7346 21.839 10.5156 21.738 10.3696 21.668 10.2886M22.7915 8.9917C22.1245 9.5427 22.0045 10.2707 22.1325 10.6197 22.1555 10.6817 22.1815 10.7317 22.2085 10.7667 22.2355 10.7957 22.2485 10.8037 22.2555 10.8067 22.2825 10.8157 22.3875 10.8157 22.6275 10.4477 22.6905 10.3517 22.7455 10.2547 22.7905 10.1587 22.8095 10.1167 22.8215 10.0787 22.8345 10.0407L22.8475 10.0037C22.8535 9.9887 22.8585 9.9727 22.8645 9.9597 22.8725 9.9377 22.8815 9.9167 22.8865 9.8967 22.9075 9.8227 22.9175 9.7557 22.9245 9.6987 22.9255 9.6927 22.9275 9.6857 22.9285 9.6787 22.9295 9.6757 22.9315 9.6717 22.9315 9.6677 22.9375 9.6007 22.9385 9.5357 22.9345 9.4697 22.9205 9.2437 22.8475 9.0827 22.7915 8.9917M23.6152 8.0889C23.1682 8.4149 23.0612 8.8749 23.1292 9.1039 23.1412 9.1439 23.1562 9.1769 23.1722 9.1999 23.1882 9.2199 23.1962 9.2259 23.2002 9.2289 23.2172 9.2349 23.2832 9.2389 23.4512 9.0129 23.4972 8.9549 23.5352 8.8939 23.5682 8.8349 23.5812 8.8089 23.5912 8.7849 23.6012 8.7609L23.6112 8.7379C23.6152 8.7289 23.6182 8.7199 23.6232 8.7109 23.6292 8.6969 23.6362 8.6839 23.6402 8.6719 23.6572 8.6259 23.6652 8.5819 23.6732 8.5469 23.6732 8.5429 23.6742 8.5379 23.6752 8.5339 23.6762 8.5309 23.6772 8.5279 23.6772 8.5259 23.6842 8.4849 23.6872 8.4429 23.6872 8.4009 23.6872 8.2559 23.6482 8.1499 23.6152 8.0889M18.4834 14.98C17.5994 16.001 17.5994 17.157 17.8894 17.661 17.9414 17.752 17.9934 17.82 18.0454 17.867 18.0934 17.906 18.1154 17.915 18.1284 17.917 18.1704 17.923 18.3314 17.897 18.6084 17.268 18.6804 17.103 18.7404 16.938 18.7824 16.778 18.8004 16.71 18.8114 16.648 18.8214 16.586L18.8314 16.525C18.8354 16.501 18.8404 16.477 18.8464 16.452 18.8534 16.418 18.8604 16.383 18.8644 16.352 18.8774 16.231 18.8754 16.125 18.8724 16.036 18.8714 16.026 18.8724 16.015 18.8724 16.005 18.8734 15.998 18.8734 15.992 18.8734 15.986 18.8664 15.88 18.8524 15.78 18.8284 15.68 18.7474 15.336 18.5934 15.107 18.4834 14.98M17.2251 16.9214C16.4231 18.0394 16.5311 19.2114 16.8711 19.6954 16.9321 19.7824 16.9921 19.8474 17.0481 19.8894 17.1011 19.9244 17.1241 19.9324 17.1371 19.9324 17.1811 19.9354 17.3411 19.8944 17.5631 19.2294 17.6211 19.0564 17.6651 18.8844 17.6951 18.7174 17.7071 18.6484 17.7121 18.5834 17.7171 18.5194L17.7211 18.4564C17.7231 18.4324 17.7271 18.4064 17.7301 18.3814 17.7331 18.3464 17.7381 18.3104 17.7391 18.2784 17.7401 18.1544 17.7291 18.0464 17.7171 17.9564 17.7161 17.9474 17.7161 17.9364 17.7151 17.9254 17.7151 17.9194 17.7151 17.9114 17.7141 17.9054 17.6971 17.8004 17.6731 17.7004 17.6401 17.5994 17.5271 17.2584 17.3481 17.0404 17.2251 16.9214M16.3716 19.2959C16.1236 19.8929 16.2976 20.4159 16.5046 20.6019 16.5416 20.6339 16.5756 20.6589 16.6066 20.6719 16.6336 20.6819 16.6456 20.6829 16.6506 20.6819 16.6726 20.6779 16.7406 20.6419 16.7716 20.3149 16.7796 20.2289 16.7826 20.1459 16.7776 20.0669 16.7756 20.0339 16.7706 20.0039 16.7666 19.9739L16.7616 19.9449C16.7596 19.9329 16.7576 19.9209 16.7576 19.9099 16.7556 19.8929 16.7546 19.8769 16.7506 19.8609 16.7386 19.8059 16.7216 19.7569 16.7066 19.7159 16.7046 19.7119 16.7036 19.7079 16.7016 19.7019 16.7016 19.6989 16.7006 19.6969 16.6986 19.6939 16.6806 19.6469 16.6596 19.6049 16.6326 19.5619 16.5446 19.4169 16.4396 19.3379 16.3716 19.2959"/>
      <mask id="logo-f" fill="#fff">
        <use xlink:href="#logo-e"/>
      </mask>
      <path fill="#9CA95B" d="M21.7412,-0.3931 C21.4902,-0.0351 21.1972,0.2329 20.9102,0.4189 L28.2372,0.4189 L28.2372,21.9749 L0.8132,21.9749 L0.8132,0.4189 L17.3602,0.4189 C17.3342,0.1649 17.3412,-0.1101 17.3762,-0.3931 L0.0002,-0.3931 L0.0002,22.7889 L29.0502,22.7889 L29.0502,-0.3931 L21.7412,-0.3931 Z" mask="url(#logo-f)"/>
    </g>
    <g transform="translate(4 .422)">
      <g transform="translate(0 18)">
        <mask id="logo-h" fill="#fff">
          <use xlink:href="#logo-g"/>
        </mask>
        <path fill="#CCA82C" d="M13.0454,0.707 L13.0854,0.603 C13.0984,0.565 13.1114,0.528 13.1254,0.491 C12.9514,0.452 12.8294,0.375 12.7544,0.261 C12.7394,0.395 12.7174,0.53 12.6914,0.666 C12.5734,1.278 12.3534,2.091 11.7904,2.091 C11.7684,2.091 11.7464,2.089 11.7234,2.086 C11.7524,2.228 11.7724,2.373 11.7814,2.524 C11.8074,2.962 11.7564,3.223 11.6164,3.374 C11.5124,3.484 11.3764,3.527 11.1904,3.476 C10.9824,4.204 10.7474,4.974 10.4554,5.707 L8.2384,12.098 C6.5474,17.048 5.2024,21.133 4.0064,24.951 C3.7894,25.671 3.5664,26.393 3.3464,27.114 C2.2714,30.618 1.1594,34.24 0.4204,37.925 L0.8434,37.999 C1.7174,33.486 3.1334,29.016 4.3834,25.07 C5.6184,21.218 6.9884,17.145 8.6964,12.254 L10.9544,5.882 C11.2644,4.894 11.6914,3.927 12.1044,2.993 L12.2354,2.693 C12.2294,2.685 12.2244,2.676 12.2194,2.666 C12.0514,2.346 12.1994,1.879 12.6994,1.152 C12.8044,1.004 12.9174,0.858 13.0454,0.707" mask="url(#logo-h)"/>
      </g>
      <path fill="#CCA82C" d="M15.3267 10.4429C15.3367 10.4239 15.3467 10.4059 15.3567 10.3899 15.2707 10.3569 15.1867 10.2999 15.1017 10.2199 15.1447 10.3899 15.1727 10.5639 15.1857 10.7459 15.2247 10.6509 15.2717 10.5509 15.3267 10.4429M13.8843 15.5054C14.0753 15.3094 14.2823 15.1404 14.5003 15.0004L14.5583 14.8684C14.4093 14.8294 14.3043 14.7594 14.2403 14.6554 14.0753 14.3894 14.1513 13.9784 14.4833 13.3244 14.8003 12.6944 15.2013 12.2154 15.6763 11.8954 15.6593 11.8964 15.6423 11.8964 15.6263 11.8964 15.3973 11.8964 15.2303 11.8264 15.1283 11.6864 15.1053 11.8134 15.0763 11.9444 15.0413 12.0774 14.8283 12.8804 14.5613 13.2564 14.1993 13.2564 14.0853 13.2564 13.9713 13.2144 13.8533 13.1304L13.8523 13.1314C14.0963 13.8244 14.1073 14.6234 13.8843 15.5054M12.9351 16.9346C12.8671 16.9366 12.7951 16.9266 12.7161 16.8966 12.7431 17.0346 12.7641 17.1766 12.7751 17.3226 12.8181 17.2026 12.8711 17.0746 12.9351 16.9346"/>
      <path fill="#CCA82C" d="M15.9829 12.1626L15.9539 12.1806C15.8569 12.2416 15.7669 12.3086 15.6769 12.3866L15.6359 12.4256C15.5649 12.4886 15.4799 12.5676 15.3949 12.6636 15.3699 12.6926 15.3459 12.7236 15.3229 12.7546L15.2339 12.8686C15.1929 12.9206 15.1519 12.9706 15.1109 13.0306 15.0099 13.1816 14.9199 13.3356 14.8339 13.5036 14.4819 14.1986 14.5469 14.4016 14.5759 14.4476 14.5849 14.4616 14.6039 14.4756 14.6329 14.4886 14.6759 14.5036 14.7189 14.5116 14.7729 14.5136L14.8169 14.5146C14.8829 14.5146 14.9499 14.5076 15.0229 14.4956 15.7289 14.3766 16.8299 13.4746 17.1079 11.8356 16.8609 11.8296 16.4389 11.8786 15.9829 12.1626M16.6748 9.4292L16.6498 9.4452C16.5658 9.5012 16.4868 9.5602 16.4078 9.6292L16.3728 9.6632C16.3098 9.7192 16.2358 9.7902 16.1628 9.8752 16.1418 9.9002 16.1208 9.9282 16.0998 9.9552L16.0228 10.0562C15.9878 10.1022 15.9518 10.1462 15.9178 10.2002 15.8298 10.3322 15.7518 10.4692 15.6788 10.6172 15.3738 11.2312 15.4338 11.4092 15.4588 11.4492 15.4668 11.4612 15.4838 11.4722 15.5108 11.4832 15.5478 11.4962 15.5858 11.5032 15.6318 11.5052L15.6718 11.5052C15.7288 11.5052 15.7878 11.4992 15.8508 11.4862 16.4708 11.3762 17.4288 10.5742 17.6598 9.1332 17.4438 9.1292 17.0728 9.1762 16.6748 9.4292M17.6616 6.9971L17.6396 7.0111C17.5626 7.0611 17.4926 7.1151 17.4216 7.1781L17.3906 7.2101C17.3336 7.2611 17.2676 7.3261 17.2016 7.4031 17.1826 7.4251 17.1646 7.4501 17.1456 7.4761L17.0766 7.5661C17.0446 7.6081 17.0126 7.6491 16.9816 7.6961 16.9036 7.8171 16.8336 7.9411 16.7686 8.0751 16.4966 8.6301 16.5516 8.7901 16.5746 8.8271 16.5816 8.8381 16.5976 8.8491 16.6216 8.8581 16.6546 8.8701 16.6896 8.8751 16.7306 8.8761L16.7676 8.8771C16.8186 8.8761 16.8716 8.8701 16.9296 8.8581 17.4886 8.7561 18.3496 8.0261 18.5496 6.7241 18.3536 6.7221 18.0196 6.7671 17.6616 6.9971M18.1367 4.564L18.1167 4.581C18.0477 4.642 17.9837 4.705 17.9227 4.776L17.8957 4.812C17.8467 4.87 17.7887 4.942 17.7337 5.028 17.7187 5.053 17.7027 5.08 17.6877 5.107L17.6307 5.208C17.6047 5.253 17.5777 5.297 17.5537 5.349 17.4927 5.48 17.4397 5.611 17.3917 5.753 17.1977 6.341 17.2727 6.493 17.3007 6.526 17.3087 6.536 17.3257 6.544 17.3497 6.551 17.3857 6.559 17.4207 6.559 17.4617 6.555L17.4967 6.551C17.5497 6.543 17.6007 6.53 17.6567 6.511 18.1987 6.335 18.9567 5.496 18.9827 4.175 18.7877 4.198 18.4617 4.288 18.1367 4.564M18.9331 2.3906L18.9191 2.4036C18.8711 2.4486 18.8281 2.4946 18.7851 2.5466L18.7661 2.5736C18.7341 2.6156 18.6941 2.6686 18.6571 2.7306 18.6451 2.7486 18.6361 2.7686 18.6261 2.7886L18.5881 2.8606C18.5711 2.8946 18.5531 2.9266 18.5371 2.9646 18.4961 3.0576 18.4601 3.1536 18.4311 3.2566 18.3061 3.6796 18.3621 3.7866 18.3831 3.8096 18.3901 3.8166 18.4021 3.8216 18.4201 3.8256 18.4451 3.8296 18.4701 3.8296 18.4991 3.8256L18.5251 3.8216C18.5611 3.8146 18.5981 3.8046 18.6371 3.7896 19.0191 3.6516 19.5401 3.0346 19.5261 2.0936 19.3891 2.1156 19.1581 2.1856 18.9331 2.3906M14.7847 15.3125L14.7507 15.3345C14.6347 15.4085 14.5267 15.4885 14.4187 15.5815L14.3707 15.6265C14.2847 15.7035 14.1817 15.7985 14.0807 15.9145 14.0517 15.9465 14.0237 15.9845 13.9947 16.0215L13.8887 16.1575C13.8397 16.2195 13.7897 16.2795 13.7427 16.3525 13.6217 16.5315 13.5137 16.7165 13.4117 16.9165 12.9897 17.7485 13.0687 17.9915 13.1027 18.0465 13.1127 18.0635 13.1357 18.0795 13.1717 18.0945 13.2227 18.1125 13.2727 18.1215 13.3367 18.1255L13.3897 18.1255C13.4687 18.1255 13.5487 18.1185 13.6357 18.1035 14.4817 17.9615 15.7967 16.8815 16.1297 14.9225 15.8347 14.9155 15.3297 14.9745 14.7847 15.3125M14.6275 17.9844L14.5905 18.0014C14.4655 18.0594 14.3455 18.1254 14.2245 18.2024L14.1695 18.2424C14.0745 18.3074 13.9595 18.3884 13.8415 18.4894 13.8075 18.5194 13.7735 18.5524 13.7405 18.5864L13.6155 18.7074C13.5575 18.7624 13.5005 18.8154 13.4425 18.8804 13.2965 19.0444 13.1625 19.2154 13.0335 19.4014 12.4975 20.1754 12.5425 20.4294 12.5695 20.4894 12.5765 20.5074 12.5975 20.5264 12.6315 20.5474 12.6795 20.5734 12.7305 20.5884 12.7935 20.6004L12.8465 20.6094C12.9255 20.6204 13.0065 20.6234 13.0945 20.6194 13.9615 20.5934 15.4255 19.6934 16.0275 17.7784 15.7325 17.7304 15.2205 17.7194 14.6275 17.9844M14.0684 9.2178C13.1904 10.6298 13.4114 12.0338 13.8604 12.5928 13.9404 12.6928 14.0184 12.7668 14.0894 12.8138 14.1554 12.8528 14.1844 12.8588 14.1994 12.8588 14.2524 12.8588 14.4434 12.7948 14.6584 11.9758 14.7144 11.7618 14.7554 11.5508 14.7774 11.3478 14.7874 11.2618 14.7874 11.1848 14.7874 11.1068L14.7884 11.0308C14.7884 11.0008 14.7904 10.9698 14.7924 10.9398 14.7954 10.8968 14.7974 10.8528 14.7954 10.8138 14.7884 10.6648 14.7644 10.5358 14.7444 10.4268 14.7414 10.4168 14.7404 10.4028 14.7394 10.3898 14.7374 10.3828 14.7374 10.3738 14.7354 10.3668 14.7074 10.2398 14.6714 10.1218 14.6224 10.0028 14.4594 9.5998 14.2264 9.3518 14.0684 9.2178M15.4507 6.8213C14.6627 8.0853 14.8617 9.3433 15.2637 9.8433 15.3357 9.9333 15.4047 10.0003 15.4697 10.0423 15.5287 10.0753 15.5537 10.0813 15.5677 10.0813 15.6157 10.0813 15.7857 10.0243 15.9787 9.2913 16.0297 9.0993 16.0657 8.9103 16.0857 8.7293 16.0947 8.6523 16.0947 8.5833 16.0957 8.5133L16.0957 8.4453C16.0957 8.4183 16.0967 8.3903 16.0977 8.3633 16.1007 8.3243 16.1027 8.2853 16.1007 8.2513 16.0957 8.1173 16.0747 8.0013 16.0557 7.9043 16.0547 7.8953 16.0527 7.8833 16.0517 7.8703 16.0507 7.8633 16.0497 7.8563 16.0477 7.8503 16.0227 7.7383 15.9897 7.6303 15.9477 7.5243 15.8007 7.1633 15.5927 6.9413 15.4507 6.8213M16.3838 4.4473C15.7028 5.5573 15.8838 6.6553 16.2378 7.0913 16.3008 7.1693 16.3628 7.2263 16.4188 7.2623 16.4708 7.2923 16.4928 7.2963 16.5048 7.2963 16.5468 7.2963 16.6958 7.2463 16.8608 6.6043 16.9038 6.4363 16.9328 6.2703 16.9498 6.1113 16.9568 6.0443 16.9558 5.9833 16.9558 5.9233L16.9558 5.8633C16.9568 5.8403 16.9578 5.8153 16.9588 5.7913 16.9608 5.7573 16.9628 5.7233 16.9608 5.6943 16.9538 5.5763 16.9358 5.4743 16.9188 5.3913 16.9168 5.3833 16.9158 5.3713 16.9138 5.3613 16.9138 5.3553 16.9138 5.3493 16.9118 5.3433 16.8878 5.2453 16.8598 5.1513 16.8208 5.0583 16.6908 4.7443 16.5078 4.5513 16.3838 4.4473M17.7515 2.2549C16.8895 3.2309 16.8785 4.3419 17.1525 4.8319 17.2005 4.9199 17.2515 4.9869 17.3005 5.0309 17.3475 5.0699 17.3675 5.0789 17.3795 5.0799 17.4205 5.0879 17.5755 5.0639 17.8485 4.4599 17.9205 4.3009 17.9785 4.1439 18.0225 3.9899 18.0405 3.9259 18.0505 3.8659 18.0615 3.8059L18.0715 3.7469C18.0755 3.7239 18.0805 3.7009 18.0865 3.6779 18.0935 3.6449 18.1015 3.6109 18.1055 3.5809 18.1185 3.4649 18.1175 3.3619 18.1145 3.2759 18.1145 3.2669 18.1155 3.2569 18.1155 3.2459 18.1165 3.2399 18.1165 3.2339 18.1165 3.2279 18.1115 3.1279 18.0985 3.0299 18.0765 2.9329 18.0025 2.6009 17.8555 2.3789 17.7515 2.2549M18.7656.7197C18.1766 1.3077 18.1236 2.0187 18.2796 2.3437 18.3076 2.4007 18.3366 2.4457 18.3666 2.4757 18.3936 2.5027 18.4086 2.5097 18.4146 2.5107 18.4406 2.5167 18.5416 2.5077 18.7396 2.1327 18.7916 2.0347 18.8356 1.9357 18.8696 1.8397 18.8846 1.7997 18.8926 1.7617 18.9016 1.7227L18.9106 1.6857C18.9146 1.6707 18.9186 1.6567 18.9226 1.6417 18.9296 1.6217 18.9356 1.5997 18.9386 1.5807 18.9526 1.5077 18.9556 1.4417 18.9576 1.3867 18.9576 1.3817 18.9586 1.3747 18.9596 1.3667 18.9596 1.3637 18.9606 1.3597 18.9606 1.3557 18.9616 1.2917 18.9566 1.2287 18.9466 1.1657 18.9116.9507 18.8276.8027 18.7656.7197M12.7422 12.1719C11.6672 13.8989 11.9382 15.6159 12.4872 16.2999 12.5852 16.4219 12.6792 16.5129 12.7672 16.5689 12.8472 16.6169 12.8842 16.6239 12.9012 16.6239 12.9672 16.6239 13.2002 16.5469 13.4632 15.5459 13.5332 15.2839 13.5822 15.0249 13.6092 14.7769 13.6212 14.6719 13.6212 14.5779 13.6212 14.4829L13.6232 14.3889C13.6232 14.3529 13.6252 14.3149 13.6272 14.2789 13.6302 14.2249 13.6332 14.1719 13.6302 14.1239 13.6222 13.9429 13.5942 13.7839 13.5682 13.6509 13.5652 13.6379 13.5632 13.6219 13.5612 13.6049 13.5602 13.5959 13.5602 13.5859 13.5582 13.5769 13.5242 13.4229 13.4782 13.2769 13.4192 13.1319 13.2202 12.6399 12.9352 12.3359 12.7422 12.1719M11.3257 15.356C10.3947 17.206 10.8277 18.923 11.4477 19.565 11.5587 19.68 11.6627 19.763 11.7567 19.812 11.8427 19.853 11.8797 19.857 11.8977 19.856 11.9637 19.85 12.1937 19.75 12.3677 18.71 12.4137 18.438 12.4397 18.171 12.4457 17.917 12.4477 17.809 12.4387 17.714 12.4297 17.617L12.4227 17.523C12.4197 17.486 12.4187 17.446 12.4167 17.409 12.4147 17.356 12.4137 17.301 12.4067 17.253 12.3807 17.068 12.3377 16.911 12.2997 16.78 12.2957 16.766 12.2917 16.75 12.2887 16.733 12.2867 16.724 12.2847 16.714 12.2817 16.705 12.2327 16.552 12.1737 16.408 12.1007 16.267 11.8527 15.786 11.5357 15.503 11.3257 15.356M10.6109 19.0869C10.3819 20.0319 10.7629 20.7699 11.1139 20.9979 11.1769 21.0389 11.2339 21.0659 11.2819 21.0789 11.3259 21.0879 11.3429 21.0869 11.3509 21.0839 11.3809 21.0729 11.4739 21.0039 11.4439 20.5089 11.4359 20.3799 11.4199 20.2549 11.3949 20.1389 11.3839 20.0889 11.3709 20.0469 11.3569 20.0039L11.3429 19.9619C11.3379 19.9449 11.3329 19.9279 11.3289 19.9099 11.3219 19.8859 11.3149 19.8609 11.3069 19.8389 11.2759 19.7589 11.2379 19.6909 11.2079 19.6349 11.2049 19.6289 11.2009 19.6219 11.1979 19.6149 11.1959 19.6109 11.1939 19.6059 11.1919 19.6029 11.1539 19.5369 11.1109 19.4789 11.0619 19.4209 10.8979 19.2289 10.7219 19.1319 10.6109 19.0869"/>
    </g>
  </g>
</svg>
