<svg xmlns="http://www.w3.org/2000/svg" xmlns:xlink="http://www.w3.org/1999/xlink" width="131" height="178" viewBox="0 0 131 178">
  <defs>
    <polygon id="logo-icon-a" points="10.927 34.506 .096 34.506 .096 .229 10.927 .229 10.927 34.506"/>
    <polygon id="logo-icon-c" points="56.524 16.327 .483 16.327 .483 .673 56.524 .673 56.524 16.327"/>
    <polygon id="logo-icon-e" points=".469 103.03 130.228 103.03 130.228 .239 .469 .239"/>
    <polygon id="logo-icon-g" points="58.419 68.299 .035 68.299 .035 .682 58.419 .682 58.419 68.299"/>
  </defs>
  <g fill="none" fill-rule="evenodd" transform="translate(0 -1)">
    <polygon fill="#9DA95C" points="14.587 178.208 10.445 178.208 4.34 166.488 4.463 170.289 4.463 178.208 .756 178.208 .756 159.318 4.899 159.318 10.979 171.038 10.858 167.237 10.858 159.318 14.587 159.318"/>
    <polygon fill="#9DA95C" points="30.676 159.318 30.676 162.708 23.046 162.708 23.046 166.876 29.464 166.876 29.464 170.26 23.046 170.26 23.046 174.817 30.676 174.817 30.676 178.208 19.123 178.208 19.123 159.318"/>
    <polygon fill="#9DA95C" points="44.801 163.794 42.065 178.26 37.05 178.26 33.926 159.319 38.02 159.319 39.835 172.909 42.378 159.319 47.249 159.319 49.792 172.909 51.607 159.319 55.701 159.319 52.577 178.26 47.538 178.26"/>
    <polygon fill="#9DA95C" points="79.35 159.318 79.35 178.208 75.426 178.208 75.426 170.26 69.928 170.26 69.928 178.208 66.004 178.208 66.004 159.318 69.928 159.318 69.928 166.876 75.426 166.876 75.426 159.318"/>
    <path fill="#9DA95C" d="M90.7850941 175.132761C93.2064887 175.132761 93.8889262 173.026714 93.8889262 169.246738L93.8889262 168.27832C93.8889262 164.498343 93.2064887 162.392296 90.7850941 162.392296L90.5718324 162.392296C88.1469418 162.392296 87.4456254 164.498343 87.4456254 168.27832L87.4456254 169.246738C87.4456254 173.026714 88.1469418 175.132761 90.5718324 175.132761L90.7850941 175.132761zM83.4747621 169.246738L83.4747621 168.27832C83.4747621 161.739925 85.7716957 159.000386 90.6676254 159.000386 95.5852309 159.000386 97.8821645 161.739925 97.8821645 168.27832L97.8821645 169.246738C97.8821645 175.78723 95.5852309 178.523972 90.6676254 178.523972 85.7716957 178.523972 83.4747621 175.78723 83.4747621 169.246738zM108.377578 168.036809C109.442488 168.036809 110.800371 167.625669 110.800371 165.496548L110.800371 165.246927C110.800371 163.119204 109.442488 162.708063 108.377578 162.708063L105.930312 162.708063 105.930312 168.036809 108.377578 168.036809zM105.930312 178.208345L102.006996 178.208345 102.006996 159.318251 108.209765 159.318251C111.284929 159.318251 114.774031 160.116059 114.774031 165.129458L114.774031 165.614016C114.774031 170.649091 111.284929 171.426622 108.209765 171.426622L105.930312 171.426622 105.930312 178.208345z"/>
    <polygon fill="#9DA95C" points="130.133 159.318 130.133 162.708 122.503 162.708 122.503 166.876 128.921 166.876 128.921 170.26 122.503 170.26 122.503 174.817 130.133 174.817 130.133 178.208 118.579 178.208 118.579 159.318"/>
    <g transform="translate(0 48.115)">
      <g transform="translate(20.977 68.523)">
        <mask id="logo-icon-b" fill="#fff">
          <use xlink:href="#logo-icon-a"/>
        </mask>
        <path fill="#CDA82C" d="M10.8440438,1.46262578 L10.8852977,1.08155156 C10.8978836,0.946602344 10.9125672,0.812352344 10.9265516,0.6802 C10.3154344,0.692086719 9.84835625,0.545250781 9.5071375,0.229203906 C9.56657109,0.685094531 9.61062188,1.15077422 9.63789141,1.62484453 C9.76375078,3.74767266 9.71690313,6.62216094 7.85628203,7.09553203 C7.78286406,7.11371172 7.70664922,7.12909453 7.62553984,7.1353875 C7.84649297,7.58218828 8.03108672,8.04367266 8.18841094,8.53802031 C8.64290313,9.96302812 8.69534453,10.8713133 8.35832109,11.4866258 C8.10590313,11.9397195 7.6947625,12.1984305 7.03400078,12.1823484 C6.95498906,14.7652625 6.82843047,17.512493 6.47742266,20.1870047 L4.51821172,43.1982937 C3.08691094,61.0025008 2.07304375,75.6490359 1.32627813,89.2879969 C1.21230547,91.8569266 1.08504766,94.4321492 0.960586719,97.0066727 C0.35016875,109.505208 -0.281925,122.424673 0.373242969,135.240653 L1.83391094,135.132274 C0.93191875,119.457887 1.85698516,103.475845 2.67437188,89.368407 C3.51832891,75.5798133 4.62659063,60.952157 6.16417266,43.3297469 L8.27581328,20.3471258 C8.47159453,16.812575 9.070825,13.25495 9.65047734,9.81479375 L9.83646953,8.71422344 C9.80640313,8.68975078 9.78262969,8.66947344 9.75745781,8.63800859 C8.92958281,7.72273125 9.026075,6.0502 10.0749031,3.22395781 C10.2937586,2.64500469 10.5454773,2.06675078 10.8440438,1.46262578" mask="url(#logo-icon-b)"/>
      </g>
      <path fill="#CDA82C" d="M32.4173895 40.7164867C32.4327723 40.6458656 32.450952 40.5808383 32.4705301 40.5165102 32.1607762 40.4773539 31.8349402 40.362682 31.4860301 40.1717953 31.7706121 40.6948109 32.0090457 41.2492914 32.2041277 41.8387328 32.2551707 41.4933187 32.3257918 41.1213344 32.4173895 40.7164867M31.9025547 58.6838215C32.3717305 57.873427 32.9122266 57.1399465 33.5156523 56.4945676L33.5967617 56.0079113C33.0681523 56.0058137 32.6633047 55.8610754 32.3654375 55.5708996 31.5990938 54.8318254 31.5005039 53.4103137 32.0486914 50.963048 32.571707 48.6115754 33.4946758 46.6908215 34.7966211 45.2308527 34.7399844 45.247634 34.6833477 45.263716 34.630207 45.2777004 33.8722539 45.4706848 33.2590391 45.3762902 32.8052461 44.9987121 32.8360117 45.4406184 32.8492969 45.8958098 32.8458008 46.3649855 32.8171328 49.2031145 32.248668 50.6700754 31.0509063 50.9749348 30.6754258 51.0707277 30.2642852 51.0287746 29.8028008 50.8539699L29.8021016 50.8560676C31.1893516 52.9439348 31.8948633 55.5750949 31.9025547 58.6838215M29.9633414 64.2106562C29.738193 64.2777812 29.4948648 64.3036523 29.2060875 64.2700898 29.4137555 64.7036055 29.5990484 65.1580977 29.7619664 65.6279727 29.8004234 65.1979531 29.8675484 64.7266797 29.9633414 64.2106562"/>
      <path fill="#CDA82C" d="M36.0333293 45.8548355L35.9550168 45.9380426C35.6865168 46.224023 35.4431887 46.5232887 35.2096496 46.8547184L35.1089621 47.0169371C34.9257668 47.288234 34.7104074 47.6224605 34.5111301 48.0119254 34.4523957 48.1238004 34.4006535 48.2489605 34.3482121 48.3734215L34.1510324 48.8237184C34.0573371 49.0292887 33.964341 49.2299645 33.8818332 49.4628043 33.673466 50.0445543 33.5042551 50.6325973 33.3630129 51.2590973 32.7819621 53.8566949 33.1679309 54.4748043 33.3014816 54.6020621 33.3413371 54.6412184 33.4161535 54.6698863 33.5273293 54.6873668 33.6804582 54.7027496 33.8279934 54.6908629 34.0055949 54.6545035L34.155927 54.620941C34.3740832 54.5657027 34.5901418 54.4880895 34.8180871 54.3839059 37.058384 53.396609 39.938466 49.4830816 39.481177 43.8284996 38.6581965 44.015191 37.3052082 44.5333121 36.0333293 45.8548355M36.0244492 36.2299496L35.956625 36.3040668C35.7230859 36.557184 35.5119219 36.8214887 35.3105469 37.1144613L35.2231445 37.2578012C35.0644219 37.4983324 34.8784297 37.794102 34.7057227 38.1367191 34.6553789 38.2360082 34.6113281 38.3457855 34.5665781 38.4555629L34.3959688 38.8527191C34.316957 39.034516 34.2358477 39.2114184 34.166625 39.4162895 33.987625 39.929516 33.8449844 40.4476371 33.725418 40.9986215 33.2373633 43.2850668 33.5827773 43.8241645 33.7002461 43.934641 33.7359063 43.9689027 33.802332 43.9940746 33.8995234 44.008059 34.0344727 44.0206449 34.1645273 44.008059 34.3183555 43.9758949L34.451207 43.9437309C34.6413945 43.8933871 34.8308828 43.8234652 35.0308594 43.7304691 36.9893711 42.8438598 39.4862813 39.382727 39.0352852 34.4203715 38.3143906 34.5909809 37.1306133 35.0587582 36.0244492 36.2299496M37.2446559 27.3500812L37.1831246 27.4179055C36.9740582 27.6472492 36.7845699 27.8870812 36.6034723 28.1534836L36.5244605 28.2828391C36.3846168 28.5002961 36.2175035 28.7680969 36.0636754 29.0792492 36.0196246 29.1687492 35.9790699 29.2687375 35.9392145 29.3687258L35.7881832 29.7281242C35.7161637 29.8924406 35.6455426 30.0525617 35.5833121 30.2371555 35.4252887 30.7014367 35.2987301 31.1699133 35.1945465 31.6691555 34.7652262 33.7360461 35.0798746 34.2199055 35.1868551 34.3198937 35.2197184 34.3513586 35.279152 34.3723352 35.3672535 34.3842219 35.4889176 34.3947102 35.6063863 34.3835227 35.7462301 34.3534562L35.8650973 34.3240891C36.0364059 34.2779406 36.2077145 34.2129133 36.3867145 34.129007 38.1515426 33.3172141 40.3869449 30.1791203 39.9527301 25.7006242 39.3024566 25.8593469 38.2375465 26.2872688 37.2446559 27.3500812M36.7693969 18.899743L36.7176547 18.9745594C36.5407523 19.2311727 36.3841273 19.4947781 36.2407875 19.7828562L36.1799555 19.9213016C36.0687797 20.1562391 35.9380258 20.4450164 35.8261508 20.7743484 35.7946859 20.868743 35.7674164 20.9736258 35.7415453 21.0778094L35.6387602 21.4553875C35.5898148 21.6273953 35.5408695 21.7966062 35.5031117 21.9881922 35.408018 22.4706531 35.3443891 22.9538133 35.3073305 23.4628445 35.1556 25.5716883 35.5331781 26.0121961 35.6520453 26.0961023 35.6891039 26.1233719 35.7499359 26.136657 35.8401352 26.1373562 35.9617992 26.1317625 36.0771703 26.1037937 36.2121195 26.0548484L36.3260922 26.0107977C36.4911078 25.941575 36.6519281 25.8548719 36.8190414 25.746493 38.4636039 24.7067547 40.2668891 21.2917703 39.2404359 16.9006766 38.6160336 17.1447039 37.6140531 17.7117703 36.7693969 18.899743M37.5765051 11.0386363L37.5415441 11.0931754C37.4219777 11.280566 37.3156965 11.472152 37.2192043 11.6805191L37.180048 11.7812066C37.1059309 11.9511168 37.0213254 12.159484 36.9500051 12.3972184 36.9283293 12.466441 36.911548 12.5405582 36.8961652 12.6153746L36.8311379 12.8873707C36.8017707 13.0111324 36.7696066 13.1320973 36.7472316 13.2705426 36.6919934 13.6166559 36.6570324 13.9620699 36.6423488 14.3256637 36.5850129 15.8331793 36.8640012 16.1380387 36.9507043 16.1953746 36.9779738 16.2121559 37.0227238 16.2212457 37.0856535 16.219148 37.1730559 16.2121559 37.2541652 16.1904801 37.349259 16.1527223L37.4296691 16.1177613C37.5450402 16.0639215 37.6583137 15.9995934 37.7750832 15.918484 38.921802 15.1374566 40.1258566 12.661523 39.2909895 9.55489414 38.8518801 9.7436832 38.1505637 10.1723043 37.5765051 11.0386363M34.7185184 57.2888102L34.6241238 57.3887984C34.3031824 57.7314156 34.0123074 58.0880172 33.7326199 58.4851734L33.6116551 58.6781578C33.3934988 59.0032945 33.1361863 59.4025484 32.8977527 59.8682281 32.8285301 60.0031773 32.7656004 60.1521109 32.7026707 60.3010445L32.4663348 60.8401422C32.355159 61.085568 32.2425848 61.3247008 32.1453934 61.6036891 31.8957723 62.3001109 31.6943973 63.003525 31.5244871 63.7530875 30.8294637 66.8590172 31.2916473 67.596693 31.4517684 67.7505211 31.498616 67.7973687 31.5888152 67.8323297 31.722366 67.8519078 31.9048621 67.8707867 32.0817645 67.8561031 32.2936277 67.8134508L32.473327 67.7721969C32.7341355 67.7050719 32.9928465 67.6134742 33.2648426 67.4897125 35.9442488 66.308732 39.3892996 61.6288609 38.8411121 54.8660172 37.8580105 55.089068 36.2393191 55.709275 34.7185184 57.2888102M36.4474766 66.2618844L36.3390977 66.3492867C35.9720078 66.6471539 35.6314883 66.9639 35.2965625 67.3239977L35.1497266 67.5002008C34.8861211 67.7952711 34.5742695 68.1602633 34.2708086 68.5937789 34.1834063 68.7189391 34.1001992 68.8580836 34.016293 69.000025L33.7065391 69.5069586C33.5604023 69.7377008 33.4163633 69.9614508 33.2800156 70.2264547 32.9346016 70.8900133 32.6367344 71.5661578 32.3640391 72.2926461 31.2424922 75.3062789 31.6039883 76.1082828 31.7431328 76.2830875 31.7829883 76.3376266 31.868293 76.3844742 31.9990469 76.4215328 32.1794453 76.4662828 32.3577461 76.4753727 32.5766016 76.4620875L32.7618945 76.4460055C33.031793 76.4152398 33.3037891 76.3579039 33.5939648 76.2705016 36.4369883 75.4559117 40.5267187 71.2466148 40.9063945 64.4019625 39.8911289 64.4907633 38.1857344 64.889318 36.4474766 66.2618844M27.2231031 37.7219426C25.5009273 43.1331965 27.4160875 47.5956105 29.3704039 49.0667668 29.7200133 49.329673 30.038857 49.5093723 30.3150484 49.6030676 30.5674664 49.6750871 30.6674547 49.6722902 30.7164 49.6604035 30.8926031 49.6156535 31.4694586 49.246466 31.4946305 46.3544973 31.5023219 45.5979426 31.4568727 44.8637629 31.3617789 44.1750324 31.320525 43.8834582 31.2561969 43.6268449 31.1911695 43.3688332L31.1289391 43.115716C31.1065641 43.0171262 31.0855875 42.9129426 31.0660094 42.8122551 31.0387398 42.6668176 31.0093727 42.5192824 30.9702164 42.3927238 30.8212828 41.9060676 30.6352906 41.4963254 30.4758687 41.1572043 30.4590875 41.1236418 30.4423062 41.0802902 30.4262242 41.0355402 30.4171344 41.0110676 30.4087437 40.9858957 30.3954586 40.9621223 30.1975797 40.5691613 29.9752281 40.2055676 29.715818 39.8531613 28.8369 38.6595949 27.858693 38.0309973 27.2231031 37.7219426M29.7809852 28.6290223C28.2392078 33.4746082 29.9536922 37.4713426 31.7038367 38.7879715 32.0170867 39.0236082 32.302368 39.185827 32.5498914 39.2683348 32.7757391 39.3333621 32.8652391 39.3312645 32.9092898 39.320077 33.0673133 39.2795223 33.5840359 38.949491 33.6057117 36.3588855 33.6120047 35.6820418 33.5721492 35.0247762 33.4875438 34.407366 33.4504852 34.1465574 33.39245 33.9165145 33.3344148 33.685073L33.2784773 33.4592254C33.2582 33.3711238 33.2400203 33.2781277 33.2225398 33.1872293 33.197368 33.0571746 33.1714969 32.9250223 33.1365359 32.8117488 33.0029852 32.3761355 32.8365711 32.0090457 32.6932313 31.7048855 32.6785477 31.6748191 32.6638641 31.6356629 32.6498797 31.5972059 32.6414891 31.5741316 32.6337977 31.5524559 32.6219109 31.5307801 32.4450086 31.1783738 32.245032 30.8532371 32.0128914 30.5378895 31.2255711 29.4680848 30.3501492 28.9059129 29.7809852 28.6290223M30.8697387 19.9888461C29.5510121 24.2352016 31.0739105 27.7180102 32.612891 28.8591352 32.887684 29.063307 33.1387035 29.2024516 33.3561605 29.2730727 33.552641 29.3290102 33.6316527 29.3269125 33.6694105 29.3164242 33.8071566 29.2807641 34.2574535 28.9877914 34.2609496 26.7237211 34.2630473 26.1314828 34.2224926 25.5574242 34.1455785 25.0183266 34.1113168 24.789682 34.0595746 24.5904047 34.006434 24.3883305L33.9574887 24.1904516C33.9386098 24.1135375 33.9218285 24.0317289 33.9057465 23.9527172 33.8826723 23.8394437 33.859598 23.7233734 33.8288324 23.6247836 33.709266 23.2451078 33.5617309 22.9255648 33.434473 22.6605609 33.4204887 22.6339906 33.4072035 22.5997289 33.3946176 22.5661664 33.3876254 22.5472875 33.3806332 22.5277094 33.3715434 22.5088305 33.2142191 22.2018734 33.0373168 21.9186898 32.8317465 21.6445961 32.1374223 20.7139359 31.3675824 20.2272797 30.8697387 19.9888461M33.5522914 11.584866C31.5224594 15.5361512 32.4216547 19.2259285 33.7382836 20.6138777 33.9739203 20.8621004 34.1955727 21.0417996 34.3969477 21.1501785 34.5815414 21.2389793 34.6591547 21.2494676 34.6990102 21.2466707 34.8409516 21.234784 35.3346 21.0243191 35.7275609 18.7966082 35.8324438 18.214159 35.8925766 17.6428973 35.9093578 17.0989051 35.9142523 16.8681629 35.8974711 16.6632918 35.8813891 16.4542254L35.8667055 16.2521512C35.8611117 16.1731395 35.8583148 16.0906316 35.8562172 16.0095223 35.8541195 15.8941512 35.8513227 15.7766824 35.8373383 15.6738973 35.7848969 15.2795379 35.6953969 14.9383191 35.6156859 14.656534 35.6065961 14.6285652 35.6003031 14.5922059 35.5926117 14.5565457 35.5891156 14.5362684 35.5863188 14.515991 35.5793266 14.4957137 35.4772406 14.1670809 35.3527797 13.8580262 35.1982523 13.5531668 34.6752367 12.5176238 34.0018891 11.9051082 33.5522914 11.584866M35.6182031 5.6490582C34.1631289 8.09352695 34.5875547 10.4883512 35.374875 11.4288004 35.5161172 11.5966129 35.6503672 11.721773 35.7748281 11.7979879 35.8888008 11.8616168 35.9384453 11.8714059 35.9643164 11.8714059 36.0552148 11.8693082 36.3789531 11.7553355 36.7194727 10.347109 36.8103711 9.97931992 36.8712031 9.61572617 36.902668 9.26891367 36.9166523 9.12137852 36.9138555 8.98922617 36.912457 8.85497617L36.9110586 8.7256207C36.9103594 8.67527695 36.9117578 8.62143711 36.9138555 8.57039414 36.9159531 8.49557773 36.9194492 8.42076133 36.9152539 8.35503477 36.8977734 8.09981992 36.8537227 7.8788668 36.8138672 7.69567148 36.8103711 7.6774918 36.8061758 7.65371836 36.8033789 7.63064414 36.8019805 7.61735898 36.800582 7.60477305 36.7970859 7.59148789 36.7453438 7.37682773 36.678918 7.17475352 36.5922148 6.97337852 36.2992422 6.2902418 35.8929961 5.87140977 35.6182031 5.6490582M25.3200395 48.6144422C23.2139926 55.2318484 25.554977 60.6885516 27.9456059 62.486243 28.3735277 62.809282 28.7622934 63.0295359 29.100016 63.1435086 29.4083715 63.2323094 29.531434 63.2288133 29.5915668 63.2127312 29.806227 63.1588914 30.5124379 62.7071961 30.5425043 59.1698484 30.5522934 58.2454812 30.4963559 57.3490828 30.3802855 56.505825 30.330641 56.147825 30.2509301 55.8359734 30.1719184 55.5192273L30.097102 55.2101727C30.0691332 55.089907 30.0425629 54.9626492 30.0187895 54.8381883 29.9845277 54.6612859 29.9495668 54.4815867 29.9013207 54.3263602 29.7195238 53.731325 29.492977 53.2299852 29.2971957 52.8160477 29.2769184 52.7733953 29.256641 52.7209539 29.2363637 52.6671141 29.224477 52.6363484 29.2146879 52.6055828 29.1986059 52.5769148 28.9573754 52.0965516 28.6846801 51.6518484 28.3686332 51.2211297 27.2918363 49.7604617 26.0968715 48.9920203 25.3200395 48.6144422M23.308457 60.3404105C21.7841602 67.2465941 24.663543 72.5627543 27.25275 74.1660629 27.7170312 74.4527426 28.1323672 74.6415316 28.4847734 74.7247387 28.8057148 74.7862699 28.9301758 74.7715863 28.9896094 74.7506098 29.2021719 74.6743949 29.8776172 74.1520785 29.5804492 70.5629887 29.5049336 69.6239379 29.3643906 68.7184496 29.1693086 67.8744926 29.0854023 67.5185902 28.975625 67.2081371 28.8672461 66.8941879L28.7616641 66.5886293C28.7225078 66.4697621 28.6854492 66.3418051 28.6483906 66.2180434 28.5966484 66.041141 28.5463047 65.8614418 28.4826758 65.7104105 28.2428437 65.1230668 27.9666523 64.6364105 27.7296172 64.2336605 27.7058437 64.1931059 27.6792734 64.1420629 27.6534023 64.0889223 27.6401172 64.0595551 27.6261328 64.0287895 27.6079531 64.0001215 27.3184766 63.5358402 27.0010312 63.110016 26.6402344 62.7023715 25.4145039 61.3207152 24.1300391 60.6522621 23.308457 60.3404105M24.0841703 73.2895922C24.1212289 76.6080844 26.0021273 78.7337094 27.3565141 79.1902992 27.5984438 79.272807 27.8082094 79.3140609 27.979518 79.3154594 28.1326469 79.3084672 28.1864867 79.2881898 28.2116586 79.272807 28.3018578 79.2161703 28.5542758 78.905018 28.0375531 77.2954164 27.9026039 76.8744867 27.743182 76.4766312 27.5634828 76.1109398 27.487268 75.9564125 27.4040609 75.8256586 27.3201547 75.6942055L27.2404438 75.5662484C27.2103773 75.5159047 27.1789125 75.4620648 27.1495453 75.4089242 27.106893 75.3341078 27.0642406 75.2571937 27.0194906 75.1949633 26.8474828 74.9516352 26.6698813 74.7586508 26.5181508 74.6006273 26.502768 74.5831469 26.4852875 74.5628695 26.467807 74.541893 26.4594164 74.529307 26.4496273 74.5167211 26.4377406 74.5055336 26.256643 74.3237367 26.0657563 74.1636156 25.8573891 74.0160805 25.1504789 73.5147406 24.4925141 73.3455297 24.0841703 73.2895922"/>
      <g transform="translate(25.172 86.703)">
        <mask id="logo-icon-d" fill="#fff">
          <use xlink:href="#logo-icon-c"/>
        </mask>
        <path fill="#CDA82C" d="M56.1806184,2.15499219 L56.3484309,1.85782422 C56.406466,1.75154297 56.4658996,1.64666016 56.5239348,1.54247656 C56.0170012,1.33760547 55.6855715,1.05302344 55.5170598,0.672648437 C55.4051848,1.06840625 55.2772277,1.46626172 55.1317902,1.86621484 C54.4878098,3.65341797 53.4382824,5.99929687 51.7433762,5.73149609 C51.6762512,5.72030859 51.6077277,5.705625 51.5399035,5.68255078 C51.5629777,6.12865234 51.5517902,6.57265625 51.5084387,7.03274219 C51.3790832,8.36265625 51.103591,9.12830078 50.6099426,9.51496875 C50.243552,9.79955078 49.8149309,9.867375 49.2765324,9.62055078 C48.3032199,11.7147109 47.2320168,13.9270391 46.0013918,16.0009219 L36.291341,34.2127734 C28.8474582,48.3320977 22.8579504,60.0055547 17.4432004,70.9476289 C16.4454152,73.0173164 15.4343449,75.0870039 14.4253723,77.1587891 C9.52384883,87.2100586 4.45730977,97.6004492 0.482950391,108.35793 L1.7212668,108.781656 C6.4983293,95.5915938 12.8849934,82.7881992 18.5227941,71.4874258 C24.0710949,60.4586484 30.1305246,48.8334375 37.5960832,34.898707 L47.4236027,16.765168 C48.8262355,13.9298359 50.5721848,11.2182656 52.2593996,8.59829297 L52.7991965,7.75783203 C52.7845129,7.72846484 52.771927,7.70189453 52.7628371,7.66763281 C52.4041379,6.62579688 53.072591,5.28609375 54.9290168,3.33247656 C55.3114895,2.93392188 55.7226301,2.54725391 56.1806184,2.15499219" mask="url(#logo-icon-d)"/>
      </g>
      <path fill="#CDA82C" d="M92.1459836 65.0273437C92.1844406 64.9749023 92.2221984 64.9273555 92.2606555 64.8826055 92.019425 64.7406641 91.7921789 64.5315977 91.5740227 64.2519102 91.6236672 64.7826172 91.6236672 65.3210156 91.5768195 65.8740977 91.7390383 65.6083945 91.9278273 65.3280078 92.1459836 65.0273437M85.3989422 79.6043766C86.069493 79.1044352 86.7715086 78.6932945 87.4945008 78.3730523L87.7315359 78.0031656C87.2987195 77.8150758 87.0176336 77.553568 86.8735945 77.2109508 86.5051063 76.3341305 86.9239383 75.1314742 88.2370711 73.3142047 89.4935672 71.5661578 90.9290633 70.313857 92.5127938 69.5726852 92.4603523 69.5670914 92.4079109 69.5600992 92.3589656 69.553107 91.6681375 69.4447281 91.1975633 69.1517555 90.9577313 68.680482 90.8276766 69.0545641 90.6780438 69.4342398 90.5109305 69.8174117 89.4872742 72.138818 88.5048719 73.1435953 87.4133914 72.9729859 87.070075 72.9191461 86.7477352 72.7408453 86.4302898 72.4331891L86.4288914 72.4359859C86.8337391 74.638525 86.4862273 77.0480328 85.3989422 79.6043766M81.858448 83.4637844C81.6507801 83.4386125 81.4417137 83.3728859 81.2172645 83.2442297 81.2333465 83.67355 81.228452 84.1126594 81.1948895 84.5545656 81.3780848 84.2147453 81.5990379 83.85255 81.858448 83.4637844"/>
      <path fill="#CDA82C" d="M93.3074559 70.5206859L93.2137605 70.5626391C92.8921199 70.7017836 92.5872605 70.8612055 92.2789051 71.0520922L92.1390613 71.1492836C91.8922371 71.3087055 91.5992645 71.5072836 91.2979012 71.7569047 91.2104988 71.828225 91.1237957 71.9121312 91.0377918 71.9960375L90.7161512 72.2967016C90.5658191 72.43235 90.4203816 72.5645023 90.2707488 72.7274203 89.8945691 73.132268 89.5491551 73.5552953 89.2121316 74.0202758 87.8199871 75.9494203 87.9206746 76.5934008 87.9843035 76.744432 88.0031824 76.7905805 88.0535262 76.840225 88.1395301 76.8933656 88.2597957 76.9604906 88.3863543 77.0024437 88.5443777 77.035307L88.679327 77.0604789C88.8786043 77.0912445 89.0841746 77.1045297 89.3065262 77.0996352 91.4957801 77.0772602 95.2400965 74.8761195 96.8524949 70.0703891 96.1127215 69.9340414 94.8177684 69.8836977 93.3074559 70.5206859M96.689507 62.611473L96.6063 62.6485316C96.3259133 62.774391 96.0602102 62.9170316 95.7917102 63.0883402L95.6686477 63.1743441C95.4532883 63.3155863 95.1980734 63.4938871 94.9337688 63.714141 94.8582531 63.7777699 94.7834367 63.8525863 94.7079211 63.9267035L94.4282336 64.1938051C94.2981789 64.3147699 94.1702219 64.4315395 94.0408664 64.5755785 93.7143313 64.9342777 93.4143664 65.309059 93.1213938 65.7195004 91.9159406 67.4262934 92.0103352 67.9905629 92.0662727 68.1227152 92.0851516 68.1632699 92.1299016 68.2073207 92.2054172 68.2527699 92.3123977 68.3101059 92.4228742 68.345766 92.5613195 68.3737348L92.6822844 68.3947113C92.8556906 68.4198832 93.0346906 68.428973 93.2325695 68.4226801 95.1526242 68.384223 98.4228703 66.4201176 99.7982336 62.1856488 99.1465617 62.0723754 98.0103313 62.0395121 96.689507 62.611473M100.817275 55.7473125L100.743158 55.7815742C100.490041 55.8962461 100.250209 56.0263008 100.00688 56.1822266L99.8985016 56.2598398C99.704818 56.3891953 99.474775 56.5507148 99.2384391 56.7520898 99.1706148 56.810125 99.1034898 56.8779492 99.033568 56.9457734L98.7846461 57.1884023C98.6671773 57.2981797 98.5518062 57.4044609 98.4371344 57.5345156 98.1427633 57.8596523 97.8735641 58.2001719 97.6134547 58.5728555 96.5331617 60.1188281 96.6205641 60.6285586 96.6744039 60.7474258 96.6883883 60.7858828 96.7303414 60.8236406 96.7995641 60.8648945 96.895357 60.9152383 96.9946461 60.9481016 97.1219039 60.9732734L97.2281852 60.9914531C97.3869078 61.0124297 97.5491266 61.0208203 97.7267281 61.0138281 99.4614898 60.9676797 102.402404 59.1776797 103.621841 55.3452617 103.031701 55.2473711 102.007345 55.2235977 100.817275 55.7473125M103.401797 48.6387051L103.334672 48.6820566C103.097637 48.8309902 102.875286 48.9918105 102.657129 49.1778027L102.558539 49.2707988C102.383036 49.424627 102.174668 49.6155137 101.9677 49.8469551 101.907567 49.9133809 101.848832 49.9895957 101.791496 50.0665098L101.574039 50.3399043C101.472653 50.463666 101.373364 50.5853301 101.274075 50.7300684 101.025852 51.0929629 100.804899 51.4677441 100.594434 51.8725918 99.7274027 53.5507168 99.8826293 54.0457637 99.9504535 54.1569395 99.9714301 54.1919004 100.017579 54.2247637 100.092395 54.2569277 100.192383 54.2946855 100.296567 54.312166 100.424524 54.3198574L100.533602 54.3233535C100.694422 54.3254512 100.856641 54.3107676 101.032844 54.280002 102.749426 54.005209 105.432329 51.834834 106.135743 47.8667676 105.535813 47.8471895 104.514254 47.9597637 103.401797 48.6387051M106.830906 42.465932L106.785457 42.4980961C106.620441 42.6106703 106.465214 42.7295375 106.313484 42.8679828L106.244961 42.935807C106.123996 43.0490805 105.982054 43.1910219 105.839414 43.360932 105.79816 43.4105766 105.757605 43.4658148 105.718449 43.5210531L105.568816 43.7217289C105.50239 43.8133266 105.433168 43.9014281 105.366043 44.0077094 105.198929 44.2720141 105.049296 44.5433109 104.906656 44.837682 104.329101 46.0550219 104.452164 46.4032328 104.502507 46.4815453 104.519988 46.5046195 104.552851 46.528393 104.605992 46.5486703 104.680109 46.573143 104.753527 46.5843305 104.845125 46.5871273L104.924136 46.5864281C105.03741 46.582932 105.15348 46.5696469 105.277242 46.5437758 106.495281 46.3060414 108.355203 44.6964398 108.763546 41.8513187 108.336324 41.8506195 107.609136 41.9562016 106.830906 42.465932M88.2025996 79.4507582L88.0900254 79.4990043C87.7054551 79.6682152 87.3418613 79.8584027 86.9719746 80.0856488L86.8048613 80.2017191C86.5118887 80.3926059 86.1594824 80.6303402 85.7979863 80.9282074 85.694502 81.0142113 85.5910176 81.1148988 85.486834 81.2148871L85.1015645 81.5749848C84.9253613 81.7372035 84.748459 81.8945277 84.569459 82.0875121 84.1212598 82.5727699 83.7059238 83.0804027 83.303873 83.6355824 81.638334 85.9423051 81.7585996 86.7114457 81.8362129 86.8932426 81.8592871 86.9491801 81.9194199 87.0093129 82.0236035 87.0722426 82.1662441 87.1526527 82.3151777 87.201598 82.5067637 87.2414535L82.6668848 87.2708207C82.9060176 87.3078793 83.1500449 87.3246605 83.4171465 87.3176684 86.033623 87.291098 90.5114199 84.6599379 92.4419629 78.9109613 91.5560527 78.7480434 90.006584 78.6872113 88.2025996 79.4507582M86.464132 87.428984L86.3431672 87.4632457C85.9376203 87.579316 85.546757 87.7205582 85.1447062 87.8974605L84.9622102 87.9897574C84.6398703 88.1400895 84.2573977 88.330277 83.8553469 88.5791988 83.7392766 88.6498199 83.6218078 88.736523 83.5022414 88.8232262L83.0701242 89.1308824C82.8687492 89.2672301 82.6708703 89.4007809 82.4659992 89.5713902 81.9492766 89.9944176 81.4661164 90.4447145 80.9864523 90.9460543 79.003468 93.0255309 79.0188508 93.812152 79.070593 94.0058355 79.0852766 94.0652691 79.1391164 94.1316949 79.2321125 94.208609 79.3663625 94.3085973 79.5090031 94.3792184 79.6928977 94.4456441L79.8509211 94.4959879C80.0830617 94.5673082 80.3270891 94.6162535 80.5955891 94.6463199 83.2183586 94.9770504 88.0597492 92.9598043 90.7818078 87.4716363 89.916175 87.1863551 88.3750969 86.9136598 86.464132 87.428984M88.9339125 60.739175C85.6154203 64.5778859 85.6168187 68.9172375 86.7048031 70.8128195 86.8991859 71.1526398 87.0970648 71.4134484 87.2907484 71.5868547 87.4739437 71.7350891 87.5550531 71.7665539 87.6019008 71.7749445 87.7613227 71.8001164 88.3654477 71.7001281 89.4044867 69.3332727 89.6764828 68.7151633 89.8981352 68.0963547 90.0610531 67.4971242 90.130975 67.2426086 90.169432 67.0090695 90.2057914 66.774132L90.24285 66.5440891C90.2596312 66.4559875 90.2792094 66.3629914 90.2980883 66.2727922 90.3281547 66.1434367 90.3540258 66.0126828 90.3673109 65.8952141 90.4162563 65.4428195 90.4078656 65.0407687 90.3966781 64.7051437 90.3938813 64.6722805 90.3966781 64.6303273 90.3980766 64.587675 90.4001742 64.5653 90.4015727 64.5415266 90.4001742 64.5170539 90.3750023 64.1254914 90.3211625 63.7479133 90.2316625 63.3668391 89.9296 62.0767805 89.34785 61.2167414 88.9339125 60.739175M94.2361582 54.1700148C91.2630801 57.6080734 91.2644785 61.4929328 92.2391895 63.1920344 92.4139941 63.4961945 92.589498 63.7290344 92.765002 63.8842609 92.9293184 64.0171125 93.0020371 64.0464797 93.0418926 64.0527727 93.1859316 64.0758469 93.7264277 63.9870461 94.6570879 61.8663156 94.8997168 61.3125344 95.0989941 60.7580539 95.2451309 60.2217531 95.3080605 59.994507 95.3409238 59.7861398 95.3744863 59.575675L95.4094473 59.3687062C95.4234316 59.2903937 95.4409121 59.2071867 95.4590918 59.1253781 95.4828652 59.010007 95.5094355 58.8932375 95.5192246 58.7876555 95.5632754 58.3828078 95.5562832 58.0220109 95.5457949 57.7227453 95.5436973 57.6926789 95.5471934 57.6549211 95.5478926 57.6178625 95.549291 57.5968859 95.5506895 57.5759094 95.549291 57.5542336 95.5276152 57.2025266 95.4772715 56.8655031 95.3975605 56.5242844 95.1283613 55.3684758 94.6060449 54.5979367 94.2361582 54.1700148M98.1719906 47.4567457C95.5932719 50.4801676 95.6198422 53.8776715 96.4819789 55.3565191 96.6351078 55.6201246 96.792432 55.8235973 96.9462602 55.9578473 97.0875023 56.0732184 97.1546273 56.0983902 97.1895883 56.1046832 97.3147484 56.1228629 97.7874203 56.0410543 98.5866273 54.1825309 98.7977914 53.6965738 98.9677016 53.2106168 99.0921625 52.7407418 99.1453031 52.5414645 99.1718734 52.3589684 99.2005414 52.1750738L99.2299086 51.9939762C99.2403969 51.9254527 99.2557797 51.8520348 99.2697641 51.7814137 99.2928383 51.6807262 99.3138148 51.5772418 99.3229047 51.4849449 99.3571664 51.130441 99.3508734 50.8164918 99.3389867 50.5542848 99.3368891 50.5270152 99.3382875 50.4948512 99.3382875 50.4619879 99.3403852 50.4438082 99.3417836 50.4263277 99.3403852 50.4074488 99.3187094 50.0990934 99.2732602 49.804023 99.2026391 49.5068551 98.9593109 48.4985816 98.4971273 47.8280309 98.1719906 47.4567457M103.334812 41.4976539C100.275031 44.029525 99.7149566 47.3759859 100.307894 48.980693 100.413476 49.2659742 100.533742 49.4932203 100.6603 49.651943 100.782664 49.7896891 100.841398 49.8260484 100.873562 49.8372359 100.995925 49.8784898 101.475589 49.8791891 102.583152 48.1877789 102.872629 47.7472711 103.122949 47.2976734 103.329218 46.8571656 103.414523 46.6690758 103.472558 46.4942711 103.531992 46.3173687L103.592125 46.1460602C103.615199 46.0789352 103.641769 46.0104117 103.669738 45.9425875 103.708195 45.8474937 103.74805 45.7503023 103.771824 45.6608023 103.867617 45.3181852 103.915164 45.0070328 103.948726 44.7469234 103.950125 44.7210523 103.959214 44.6888883 103.964109 44.6581227 103.968304 44.6392437 103.973898 44.6224625 103.974597 44.6028844 104.006761 44.2966266 104.013054 43.9994586 103.993476 43.6945992 103.929148 42.6597555 103.590027 41.9192828 103.334812 41.4976539M107.120452 37.3491191C105.066148 38.844748 104.5718 40.9619824 104.886448 42.0108105 104.943085 42.1995996 105.01021 42.3485332 105.085726 42.4548145 105.155648 42.5485098 105.193405 42.5729824 105.214382 42.5820723 105.290597 42.6121387 105.595456 42.632416 106.372988 41.5961738 106.575761 41.3255762 106.754062 41.0486855 106.902296 40.7745918 106.965226 40.6585215 107.009976 40.5494434 107.056124 40.4382676L107.100874 40.3319863C107.117655 40.2900332 107.137234 40.2466816 107.15821 40.2047285 107.18548 40.1438965 107.214847 40.0844629 107.233726 40.0285254 107.309941 39.8124668 107.350495 39.6159863 107.383359 39.4509707 107.385456 39.4348887 107.39105 39.4139121 107.397343 39.3936348 107.40014 39.3831465 107.402937 39.371959 107.404335 39.359373 107.439296 39.1656895 107.455378 38.9762012 107.45398 38.7797207 107.455378 38.1154629 107.269386 37.6288066 107.120452 37.3491191M83.5368527 69.0157574C79.4764895 73.7103121 79.4785871 79.0166832 80.8092004 81.3352926 81.0469348 81.752027 81.2888645 82.068773 81.5252004 82.282734 81.7482512 82.4624332 81.8510363 82.5022887 81.9055754 82.5113785 82.1006574 82.5428434 82.8397316 82.4204801 84.1109113 79.5257145 84.4437395 78.769859 84.7136379 78.0126051 84.9150129 77.2798238 84.9996184 76.967273 85.0436691 76.6833902 85.091216 76.3953121L85.1373645 76.1156246C85.1576418 76.0072457 85.1814152 75.8939723 85.2044895 75.7834957 85.2387512 75.6254723 85.2716145 75.4653512 85.2890949 75.3213121 85.3492277 74.7682301 85.3394387 74.2752809 85.3254543 73.8669371 85.3226574 73.8263824 85.3254543 73.7753395 85.3261535 73.7242965 85.3289504 73.6949293 85.3296496 73.6662613 85.3282512 73.6368941 85.298884 73.1572301 85.2296613 72.6957457 85.1226809 72.2314645 84.7527941 70.6526285 84.0423879 69.5996051 83.5368527 69.0157574M77.7546633 77.9403758C74.0711789 83.0761375 74.5662258 88.457325 76.1289797 90.6857352 76.4100656 91.0835906 76.6834602 91.3849539 76.9442687 91.5779383 77.1854992 91.740157 77.2938781 91.7730203 77.3491164 91.7779148 77.5504914 91.7898016 78.2895656 91.5975164 79.3090266 88.5454266 79.5768273 87.7469187 79.7796008 86.9547039 79.9173469 86.1925555 79.9746828 85.8695164 79.9928625 85.5758445 80.0145383 85.280075L80.0355148 84.9926961C80.0446047 84.8801219 80.0599875 84.7626531 80.0718742 84.6479812 80.09355 84.4850633 80.1145266 84.3200477 80.115925 84.1732117 80.1257141 83.6040477 80.0690773 83.1090008 80.0166359 82.6943641 80.0117414 82.6524109 80.0075461 82.5999695 80.0047492 82.5482273 80.0047492 82.5195594 80.0033508 82.4901922 79.9991555 82.4601258 79.9250383 81.9762664 79.8124641 81.5154812 79.6614328 81.0518992 79.1405148 79.4863484 78.3203313 78.4850672 77.7546633 77.9403758M73.8337941 88.8485379C72.6968645 91.5887762 73.4932746 93.9961863 74.4456105 94.8492332 74.6148215 95.0016629 74.7728449 95.1093426 74.9119895 95.171573 75.0406457 95.2191199 75.0930871 95.2212176 75.1189582 95.2177215 75.2133527 95.2030379 75.5300988 95.037323 75.671341 93.5319051 75.7083996 93.1389441 75.7188879 92.755073 75.6986105 92.3914793 75.6895207 92.2376512 75.6685441 92.1013035 75.6461691 91.9642566L75.6258918 91.8314051C75.6188996 91.7775652 75.6119074 91.7230262 75.6056145 91.6684871 75.5972238 91.5929715 75.5916301 91.514659 75.5741496 91.447534 75.5196105 91.1881238 75.4405988 90.9678699 75.3720754 90.7832762 75.364384 90.7622996 75.3587902 90.7399246 75.3524973 90.7161512 75.3490012 90.7035652 75.3455051 90.6909793 75.3392121 90.6776941 75.2539074 90.4644324 75.1539191 90.2644559 75.0357512 90.0693738 74.6316027 89.4100105 74.149841 89.0387254 73.8337941 88.8485379"/>
      <mask id="logo-icon-f" fill="#fff">
        <use xlink:href="#logo-icon-e"/>
      </mask>
      <path fill="#9DA95C" d="M98.5106223,-1.62792109 C97.352716,0.0194382812 96.0088176,1.24936406 94.6907902,2.10660625 L128.359571,2.10660625 L128.359571,101.162829 L2.33588008,101.162829 L2.33588008,2.10660625 L78.3752199,2.10660625 C78.2563527,0.935414844 78.289216,-0.323878125 78.4514348,-1.62792109 L-1.39864727,-1.62792109 L-1.39864727,104.898055 L132.094798,104.898055 L132.094798,-1.62792109 L98.5106223,-1.62792109 Z" mask="url(#logo-icon-f)"/>
    </g>
    <g transform="translate(18.879 .568)">
      <g transform="translate(0 80.41)">
        <mask id="logo-icon-h" fill="#fff">
          <use xlink:href="#logo-icon-g"/>
        </mask>
        <path fill="#CDA82C" d="M58.0515879,2.73338594 L58.2312871,2.25022578 C58.2935176,2.07821797 58.3571465,1.90900703 58.4186777,1.74049531 C57.617373,1.55380391 57.0572988,1.20699141 56.7167793,0.681878125 C56.6433613,1.29579219 56.5461699,1.91809687 56.4245059,2.54669453 C55.884709,5.35615547 54.8701426,9.09068281 52.2858301,9.09068281 C52.1844434,9.09068281 52.080959,9.08438984 51.9732793,9.06690937 C52.1124238,9.72207734 52.1998262,10.3856359 52.2410801,11.0820578 C52.3613457,13.0916125 52.1285059,14.294968 51.4852246,14.9850969 C51.006959,15.4920305 50.3839551,15.6934055 49.5281113,15.4535734 C48.568084,18.7972375 47.4912871,22.3387805 46.1480879,25.7118117 L35.9611699,55.0755031 C28.190752,77.8252844 22.0110566,96.5944133 16.5151973,114.136413 C15.5132168,117.45071 14.4951543,120.767105 13.4784902,124.0828 C8.53781055,140.182312 3.43001758,156.827214 0.0346113281,173.761593 L1.9763418,174.105609 C5.99684961,153.359788 12.5030801,132.820237 18.2471621,114.688097 C23.9199238,96.9824797 30.2156895,78.2699875 38.0644199,55.7929016 L48.440127,26.5145148 C49.8672324,21.9709914 51.8292402,17.5281555 53.7255215,13.2342531 L54.3324434,11.8588898 C54.302377,11.8169367 54.2779043,11.7812766 54.2548301,11.7344289 C53.4786973,10.2646711 54.1604355,8.11527266 56.4643613,4.77510469 C56.9419277,4.09336641 57.4614473,3.42351484 58.0515879,2.73338594" mask="url(#logo-icon-h)"/>
      </g>
      <path fill="#CDA82C" d="M68.5357438 45.1630984C68.5790953 45.0770945 68.6245445 44.9973836 68.670693 44.9197703 68.2798297 44.7659422 67.8924625 44.5079305 67.5015992 44.1436375 67.6987789 44.9197703 67.8260367 45.7231727 67.8847711 46.5559422 68.0658688 46.1231258 68.2826266 45.6609422 68.5357438 45.1630984M61.9061012 68.4284836C62.787816 67.5271906 63.7345582 66.7510578 64.7365387 66.1077766L65.002941 65.5008547C64.3149098 65.3225539 63.8352457 64.9995148 63.542273 64.5219484 62.787816 63.3039094 63.1311324 61.4160187 64.6568277 58.4051828 66.1188941 55.5125148 67.9592379 53.3134719 70.1421988 51.840218 70.0617887 51.8430148 69.9834762 51.8465109 69.909359 51.8465109 68.8570348 51.8465109 68.0885934 51.5199758 67.6215152 50.8766945 67.5145348 51.4640383 67.3816832 52.0625695 67.2215621 52.6729875 66.2433551 56.3662609 65.0148277 58.0912336 63.3506871 58.0912336 62.8290699 58.0912336 62.3074527 57.9010461 61.7634605 57.5185734L61.7620621 57.5213703C62.8794137 60.7049133 62.9269605 64.3709172 61.9061012 68.4284836M57.5435355 74.9959656C57.2274887 75.0078523 56.9016527 74.9603055 56.5373598 74.8211609 56.6632191 75.4553523 56.7548168 76.1105203 56.8114535 76.777575 57.0044379 76.2293875 57.2470668 75.63645 57.5435355 74.9959656"/>
      <path fill="#CDA82C" d="M71.5483977 53.0644801L71.4176437 53.1476871C70.9736398 53.4322691 70.5569055 53.7399254 70.1422687 54.0958277L69.9569758 54.2734293C69.628343 54.5671012 69.2367805 54.9313941 68.8473156 55.3733004 68.7347414 55.5005582 68.6242648 55.6459957 68.5151867 55.790734L68.1075422 56.3130504C67.9180539 56.5500855 67.7299641 56.7808277 67.5453703 57.0563199 67.0803898 57.747148 66.6657531 58.4582535 66.2727922 59.2287926 64.6534016 62.423523 64.9526672 63.3576793 65.0848195 63.5681441 65.1232766 63.6331715 65.2113781 63.695402 65.3512219 63.7548355 65.5456047 63.8254566 65.7420852 63.8583199 65.9854133 63.8702066L66.1930812 63.8758004C66.4951437 63.8758004 66.8034992 63.8464332 67.1349289 63.7869996 70.3848977 63.241609 75.4388508 59.0931441 76.7177219 51.5646559 75.5828898 51.5352887 73.6453547 51.763234 71.5483977 53.0644801M74.7283047 40.5068609L74.6150313 40.5802789C74.2262656 40.8340953 73.8633711 41.1081891 73.5025742 41.4242359L73.3417539 41.5822594C73.0550742 41.843068 72.7145547 42.1668062 72.3761328 42.5569703 72.2768438 42.6702437 72.1824492 42.7989 72.0887539 42.926857L71.7349492 43.3890406C71.5699336 43.5988062 71.4063164 43.8029781 71.2475938 44.0470055 70.8448438 44.6574234 70.4868438 45.2860211 70.1484219 45.9656617 68.7527813 48.7856109 69.0247773 49.6029977 69.1422461 49.7868922 69.1765078 49.8435289 69.2548203 49.8973687 69.3778828 49.9477125 69.5498906 50.0085445 69.7225977 50.0358141 69.9351602 50.0442047L70.1176563 50.0477008C70.3833594 50.0449039 70.653957 50.0169352 70.944832 49.9609977 73.7941484 49.4547633 78.1978281 45.7670836 79.2550469 39.145482 78.2586602 39.1287008 76.5588594 39.3461578 74.7283047 40.5068609M79.2643465 29.3289402L79.1615613 29.3967645C78.8126512 29.6275066 78.486116 29.8764285 78.1616785 30.1645066L78.016241 30.3071473C77.7610262 30.5434832 77.4540691 30.8378543 77.1506082 31.1930574 77.0632059 31.2958426 76.977202 31.4119129 76.8918973 31.5286824L76.5751512 31.9475145C76.427616 32.1384012 76.2821785 32.3229949 76.1395379 32.5446473 75.7801395 33.0977293 75.459198 33.6668934 75.1578348 34.2822059 73.9125262 36.8357527 74.1621473 37.5727293 74.2684285 37.7377449 74.3005926 37.7894871 74.3719129 37.837034 74.4830887 37.8824832 74.6383152 37.936323 74.7949402 37.9600965 74.9879246 37.9670887L75.152241 37.9684871C75.392073 37.964991 75.6361004 37.9377215 75.8976082 37.8866785 78.4679363 37.4133074 82.4248152 34.0612527 83.3435887 28.075241 82.4436941 28.0661512 80.9110066 28.2710223 79.2643465 29.3289402M81.4466781 18.1485723L81.353682 18.2289824C81.0383344 18.5051738 80.7467602 18.7960488 80.4635766 19.1246816L80.3384164 19.2862012C80.1153656 19.5554004 79.8503617 19.8882285 79.5951469 20.2811895 79.5217289 20.3944629 79.451807 20.5224199 79.3832836 20.6489785L79.1245727 21.1069668C79.0036078 21.3160332 78.882643 21.5195059 78.770768 21.7579395 78.4868852 22.3550723 78.243557 22.9633926 78.0261 23.6150645 77.1290023 26.3175449 77.4744164 27.0160645 77.6030727 27.1656973 77.6415297 27.2125449 77.7177445 27.251002 77.8345141 27.2810684 77.9953344 27.3139316 78.154057 27.3160293 78.3463422 27.2971504L78.5099594 27.2775723C78.748393 27.2419121 78.9868266 27.1817793 79.240643 27.0964746 81.7305609 26.2846816 85.2154672 22.4291895 85.3329359 16.3606699 84.4365375 16.4711465 82.9416078 16.878791 81.4466781 18.1485723M85.1059695 8.16219023L85.0416414 8.22162383C84.8234852 8.42649492 84.6221102 8.64115508 84.4270281 8.88168633L84.3424227 8.9998543C84.1892938 9.19633477 84.0095945 9.44036211 83.8382859 9.72634258 83.7865438 9.80885039 83.7403953 9.90184648 83.6949461 9.99344414L83.5201414 10.3262723C83.4404305 10.4780027 83.3593211 10.6262371 83.2845047 10.7989441 83.0964148 11.2317605 82.9362938 11.6701707 82.79645 12.1400457 82.2230906 14.0880691 82.4852977 14.5775223 82.5796922 14.6810066 82.6090594 14.7131707 82.6642977 14.7390418 82.7482039 14.7572215 82.8642742 14.7767996 82.9768484 14.7754012 83.1131961 14.7572215L83.2299656 14.7390418C83.3984773 14.707577 83.5676883 14.6593309 83.7466883 14.5929051 85.5010281 13.9552176 87.8930555 11.1240809 87.8329227 6.7959168 87.1987312 6.89590508 86.1415125 7.22174102 85.1059695 8.16219023M66.04205 67.5432027L65.885425 67.6424918C65.3540188 67.9830113 64.856175 68.3514996 64.3604289 68.7766246L64.1380773 68.9891871C63.7451164 69.3401949 63.2773391 69.7765074 62.8116594 70.3044176 62.6767102 70.4568473 62.5445578 70.6309527 62.4145031 70.804359L61.9264484 71.4280621C61.6999016 71.7119449 61.4747531 71.9874371 61.2544992 72.3181676 60.6986203 73.1432457 60.202175 73.9941949 59.7329992 74.9157652 57.7954641 78.7362965 58.1541633 79.8529488 58.3114875 80.1053668 58.3576359 80.1829801 58.463218 80.2570973 58.6303313 80.3277184 58.8624719 80.413023 59.0981086 80.4521793 59.3882844 80.4661637L59.6372063 80.4731559C59.9987023 80.4731559 60.3671906 80.4381949 60.7636477 80.3668746 64.6506047 79.7152027 70.6946516 74.7528473 72.223843 65.7497066 70.8659602 65.7140465 68.5494484 65.987441 66.04205 67.5432027M65.3216449 79.8201555L65.1517348 79.898468C64.5734809 80.1655695 64.0245941 80.4655344 63.4694145 80.8242336L63.2176957 81.0060305C62.7757895 81.3038977 62.2485785 81.6751828 61.7094809 82.1401633 61.5528559 82.2744133 61.3990277 82.4296398 61.243102 82.5862648L60.6704418 83.1435422C60.4033402 83.3959602 60.1418324 83.6420852 59.8754301 83.94205 59.2055785 84.6916125 58.5916645 85.4754367 57.9952309 86.3333781 55.5332816 89.8917023 55.7381527 91.0579992 55.8619145 91.332093 55.8968754 91.4159992 55.9926684 91.5054992 56.1499926 91.5984953 56.3709457 91.7159641 56.6002895 91.7872844 56.8904652 91.8411242L57.1365902 91.8823781C57.4994848 91.9320227 57.8735668 91.9474055 58.2798129 91.9313234 62.259766 91.8110578 68.9897465 87.6744797 71.7544574 78.8734133 70.4014691 78.6517609 68.0444027 78.6063117 65.3216449 79.8201555M62.7535543 39.534877C58.7127691 46.0229277 59.7308316 52.477416 61.7921285 55.044248 62.1606168 55.5036348 62.5165191 55.8448535 62.8458512 56.057416 63.1507105 56.2357168 63.2828629 56.265084 63.3506871 56.265084 63.5954137 56.265084 64.4708355 55.9749082 65.4623277 52.2110137 65.7231363 51.2272129 65.9070309 50.2552988 66.0119137 49.3239395 66.0552652 48.9302793 66.0552652 48.574377 66.0566637 48.2156777L66.0601598 47.8660684C66.0622574 47.7297207 66.0699488 47.5877793 66.0776402 47.4479355 66.089527 47.2493574 66.1007145 47.0479824 66.0916246 46.8703809 66.0587613 46.1858457 65.9524801 45.5901113 65.8559879 45.0950645 65.8461988 45.0440215 65.8385074 44.9824902 65.8315152 44.9202598 65.8280191 44.8845996 65.8259215 44.8489395 65.8168316 44.8132793 65.6888746 44.2357246 65.5189645 43.6868379 65.2980113 43.1421465 64.5463512 41.2927129 63.4793434 40.1480918 62.7535543 39.534877M69.1051875 28.5221816C65.4860313 34.3319902 66.3978125 40.1124316 68.2444492 42.4114629 68.5737813 42.8226035 68.892625 43.1281621 69.1876953 43.3190488 69.4610898 43.4777715 69.5792578 43.5043418 69.6400898 43.5043418 69.8589453 43.5043418 70.6427695 43.2449316 71.5307773 39.873998 71.7643164 38.9929824 71.9286328 38.1217559 72.0230273 37.2889863 72.0621836 36.9358809 72.0621836 36.6177363 72.0621836 36.2960957L72.0656797 35.9828457C72.0677773 35.8611816 72.0747695 35.7332246 72.0817617 35.6087637 72.0915508 35.4304629 72.1027383 35.2507637 72.0943477 35.0913418 72.0642812 34.478127 71.9698867 33.944623 71.8838828 33.5013184 71.874793 33.4558691 71.8678008 33.4006309 71.8615078 33.3446934 71.8587109 33.3132285 71.8566133 33.2810645 71.8482227 33.2495996 71.73425 32.7314785 71.5818203 32.240627 71.3832422 31.7525723 70.7105938 30.096123 69.7554609 29.0717676 69.1051875 28.5221816M73.39 17.6132504C70.2616953 22.7147504 71.0937656 27.7631098 72.7222461 29.7607777 73.0138203 30.1180785 73.294207 30.3830824 73.552918 30.548098 73.7920508 30.6858441 73.8962344 30.7089184 73.949375 30.7082191 74.1402617 30.7068207 74.8247969 30.4746801 75.5799531 27.5225785 75.7785313 26.750641 75.9169766 25.9884926 75.9952891 25.2599066 76.0267539 24.9501527 76.0246563 24.6725629 76.0232578 24.391477L76.0246563 24.1173832C76.0253555 24.011102 76.03025 23.899227 76.0351445 23.7901488 76.0435352 23.634223 76.0519258 23.4768988 76.0435352 23.3377543 76.0134688 22.8014535 75.9274648 22.3357738 75.8498516 21.9491059 75.8407617 21.9092504 75.8344688 21.8610043 75.828875 21.812059 75.8260781 21.7840902 75.8232813 21.7568207 75.8169883 21.728852 75.7135039 21.2771566 75.5771563 20.8485355 75.4009531 20.4234105 74.8031211 18.9795238 73.9605625 18.0894184 73.39 17.6132504M79.6754172 7.54114414C75.7185383 12.0217379 75.6667961 17.1323277 76.9239914 19.3796168 77.1491398 19.7809684 77.3791828 20.090023 77.6050305 20.297691 77.817593 20.4745934 77.9147844 20.5144488 77.967925 20.5228395 78.1567141 20.5550035 78.8699172 20.444527 80.122218 17.6693277 80.4508508 16.9442379 80.7186516 16.2184488 80.9207258 15.5143355 81.0039328 15.2157691 81.0500812 14.9416754 81.0983273 14.6647848L81.1465734 14.3955855C81.1654523 14.291402 81.189925 14.1823238 81.2136984 14.0760426 81.2486594 13.9243121 81.2843195 13.7697848 81.2990031 13.6320387 81.362632 13.099234 81.3584367 12.6258629 81.3486477 12.2315035 81.34655 12.1909488 81.3500461 12.1427027 81.3514445 12.0937574 81.3535422 12.0657887 81.3563391 12.0385191 81.3542414 12.0098512 81.330468 11.5469684 81.2703352 11.1022652 81.1703469 10.6533668 80.8312258 9.12906992 80.1557805 8.10821055 79.6754172 7.54114414M84.3392062.483090234C81.6297336 3.1890668 81.3899016 6.45441836 82.1052023 7.94095742 82.2324602 8.20666055 82.3667102 8.4136293 82.5030578 8.5555707 82.6317141 8.67653555 82.6932453 8.70590273 82.7261086 8.71359414 82.845675 8.74226211 83.3057609 8.69960977 84.216843 6.97603555 84.4573742 6.52643789 84.6573508 6.07264492 84.8139758 5.63003945 84.8804016 5.44264883 84.9209562 5.2699418 84.9636086 5.09443789L85.0041633 4.92522695C85.0209445 4.85810195 85.0405227 4.78957852 85.0594016 4.72245352 85.0873703 4.62735977 85.1167375 4.53016836 85.1335187 4.4420668 85.19505 4.10434414 85.2104328 3.80228164 85.2195227 3.54916445 85.2202219 3.52329336 85.223718 3.49182852 85.2279133 3.46036367 85.2293117 3.4428832 85.2321086 3.42540273 85.2314094 3.40722305 85.2363039 3.1107543 85.2160266 2.82407461 85.1698781 2.53250039 85.0139523 1.54520352 84.6230891.864863672 84.3392062.483090234M56.6592336 53.1116074C51.7178547 61.0456426 52.9624641 68.939123 55.4831477 72.077916 55.9341438 72.6393887 56.3690578 73.056123 56.7718078 73.3169316 57.1444914 73.5343887 57.3060109 73.570748 57.3899172 73.570748 57.6884836 73.570748 58.7589875 73.2162441 59.9714328 68.6125879 60.2902766 67.4099316 60.515425 66.2212598 60.643382 65.0829316 60.6958234 64.6004707 60.6958234 64.1662559 60.6979211 63.7271465L60.7021164 63.2999238C60.7056125 63.1335098 60.7147023 62.9587051 60.7237922 62.7887949 60.7377766 62.5454668 60.7524602 62.2993418 60.7412727 62.0818848 60.7000187 61.2449199 60.5713625 60.516334 60.4531945 59.9108105 60.4406086 59.8492793 60.432218 59.7730645 60.4231281 59.6968496 60.4189328 59.653498 60.4154367 59.6101465 60.4042492 59.5667949 60.2490227 58.8598848 60.0406555 58.189334 59.7700578 57.5229785 58.8519836 55.2610059 57.5472414 53.8618691 56.6592336 53.1116074M50.1464305 67.7408719C45.8686102 76.2433719 47.8606844 84.132657 50.7079031 87.0819617 51.2176336 87.6098719 51.6972977 87.9930437 52.1294148 88.2195906 52.5272703 88.406282 52.6950828 88.4279578 52.7789891 88.4202664 53.0817508 88.3929969 54.1347742 87.9336102 54.9388758 83.1537508 55.1507391 81.9042469 55.2682078 80.6778172 55.2933797 79.5115203 55.3024695 79.0178719 55.2619148 78.5773641 55.2248563 78.1326609L55.1877977 77.6984461C55.1759109 77.5292352 55.1703172 77.3516336 55.163325 77.1782273 55.1549344 76.9300047 55.147243 76.6789852 55.1150789 76.4601297 54.9969109 75.614075 54.7976336 74.8875867 54.6228289 74.2848602 54.6046492 74.2233289 54.587868 74.1471141 54.5717859 74.0708992 54.5640945 74.0268484 54.5557039 73.9834969 54.5417195 73.9401453 54.3179695 73.2374305 54.044575 72.577368 53.7096492 71.9256961 52.5685242 69.7175633 51.1155477 68.4198133 50.1464305 67.7408719M46.8647172 84.8885125C45.812393 89.2292625 47.5618383 92.6239695 49.1770336 93.6700008 49.4651117 93.8573914 49.7252211 93.9811531 49.9475727 94.0384891 50.1489477 94.0811414 50.2279594 94.07345 50.265018 94.0615633 50.4013656 94.0168133 50.8334828 93.6951727 50.6936391 91.4241102 50.6565805 90.8311727 50.5810648 90.2578133 50.4670922 89.7222117 50.4202445 89.4949656 50.3538188 89.2984852 50.2880922 89.0985086L50.2272602 88.9041258C50.2034867 88.8286102 50.1811117 88.7482 50.1608344 88.6691883 50.1300688 88.5573133 50.1000023 88.4426414 50.0622445 88.34545 49.9175063 87.9720672 49.750393 87.6609148 49.6056547 87.4043016 49.5902719 87.3784305 49.5748891 87.344868 49.558807 87.3113055 49.5525141 87.2924266 49.5434242 87.2735477 49.5315375 87.255368 49.3560336 86.9575008 49.1595531 86.6848055 48.9372016 86.4232977 48.1820453 85.5352898 47.3779438 85.0954812 46.8647172 84.8885125"/>
    </g>
  </g>
</svg>
